%TF.GenerationSoftware,KiCad,Pcbnew,8.0.2*%
%TF.CreationDate,2024-07-21T18:01:24+02:00*%
%TF.ProjectId,CzlapCzlapTOP,437a6c61-7043-47a6-9c61-70544f502e6b,rev?*%
%TF.SameCoordinates,Original*%
%TF.FileFunction,Plated,1,2,PTH,Mixed*%
%TF.FilePolarity,Positive*%
%FSLAX46Y46*%
G04 Gerber Fmt 4.6, Leading zero omitted, Abs format (unit mm)*
G04 Created by KiCad (PCBNEW 8.0.2) date 2024-07-21 18:01:24*
%MOMM*%
%LPD*%
G01*
G04 APERTURE LIST*
%TA.AperFunction,ViaDrill*%
%ADD10C,0.400000*%
%TD*%
G04 aperture for slot hole*
%TA.AperFunction,ComponentDrill*%
%ADD11C,0.650000*%
%TD*%
%TA.AperFunction,ComponentDrill*%
%ADD12C,0.950000*%
%TD*%
%TA.AperFunction,ViaDrill*%
%ADD13C,1.000000*%
%TD*%
%TA.AperFunction,ComponentDrill*%
%ADD14C,1.000000*%
%TD*%
%TA.AperFunction,ComponentDrill*%
%ADD15C,1.200000*%
%TD*%
G04 APERTURE END LIST*
D10*
X114604800Y-73329800D03*
D11*
%TO.C,J22*%
X113943200Y-19130600D02*
X113943200Y-19680600D01*
X113943200Y-24030600D02*
X113943200Y-24580600D01*
X120143200Y-19130600D02*
X120143200Y-19680600D01*
X120143200Y-24030600D02*
X120143200Y-24580600D01*
D12*
%TO.C,J10*%
X97180400Y-63863200D03*
X97180400Y-66363200D03*
X97180400Y-68863200D03*
X97180400Y-71363200D03*
X97180400Y-73863200D03*
X97180400Y-76363200D03*
%TO.C,J16*%
X100639600Y-86826400D03*
X100639600Y-89326400D03*
X100639600Y-91826400D03*
X100639600Y-94326400D03*
%TO.C,J9*%
X102011200Y-63852400D03*
X102011200Y-66352400D03*
X102011200Y-68852400D03*
X102011200Y-71352400D03*
X102011200Y-73852400D03*
X102011200Y-76352400D03*
%TD*%
D13*
X102362000Y-35356800D03*
X112877600Y-46228000D03*
X116890800Y-56083200D03*
X122809000Y-71983600D03*
X127660400Y-31496000D03*
D14*
%TO.C,U1*%
X88798400Y-48463200D03*
X88798400Y-51003200D03*
X88798400Y-53543200D03*
X88798400Y-56083200D03*
X88798400Y-58623200D03*
X88798400Y-61163200D03*
X88798400Y-63703200D03*
X88798400Y-66243200D03*
X88798400Y-68783200D03*
X88798400Y-71323200D03*
X88798400Y-73863200D03*
X88798400Y-76403200D03*
X88798400Y-78943200D03*
X88798400Y-81483200D03*
X88798400Y-84023200D03*
X88798400Y-86563200D03*
X88798400Y-89103200D03*
X88798400Y-91643200D03*
X88798400Y-94183200D03*
X88798400Y-96723200D03*
X91338400Y-48463200D03*
X91338400Y-51003200D03*
X91338400Y-53543200D03*
X91338400Y-56083200D03*
X91338400Y-58623200D03*
X91338400Y-61163200D03*
X91338400Y-63703200D03*
X91338400Y-66243200D03*
X91338400Y-68783200D03*
X91338400Y-71323200D03*
X91338400Y-73863200D03*
X91338400Y-76403200D03*
X91338400Y-78943200D03*
X91338400Y-81483200D03*
X91338400Y-84023200D03*
X91338400Y-86563200D03*
X91338400Y-89103200D03*
X91338400Y-91643200D03*
X91338400Y-94183200D03*
%TO.C,J5*%
X96672400Y-38760400D03*
X96672400Y-41300400D03*
%TO.C,RST1*%
X96697800Y-85344000D03*
X96697800Y-87884000D03*
X96697800Y-90424000D03*
%TO.C,GPIO_1*%
X97663000Y-50698400D03*
X97663000Y-53238400D03*
X97663000Y-55778400D03*
X97663000Y-58318400D03*
%TO.C,3V3_1*%
X98348800Y-81534000D03*
%TO.C,J5*%
X99212400Y-38760400D03*
X99212400Y-41300400D03*
%TO.C,3V3_1*%
X100888800Y-81534000D03*
%TO.C,RST2*%
X101295200Y-52679600D03*
X101295200Y-55219600D03*
X101295200Y-57759600D03*
%TO.C,J19*%
X105156000Y-55727600D03*
X105156000Y-58267600D03*
%TO.C,J20*%
X105206800Y-49479200D03*
X105206800Y-52019200D03*
%TO.C,5V_1*%
X105211800Y-37639200D03*
%TO.C,5V_2*%
X105211800Y-41351200D03*
%TO.C,5V_3*%
X105216800Y-45086800D03*
%TO.C,U7*%
X106756200Y-61990600D03*
X106756200Y-64530600D03*
X106756200Y-67070600D03*
X106756200Y-69610600D03*
X106756200Y-72150600D03*
X106756200Y-74690600D03*
%TO.C,J14*%
X107289600Y-78282800D03*
%TO.C,J15*%
X107313000Y-81979200D03*
%TO.C,J19*%
X107696000Y-55727600D03*
X107696000Y-58267600D03*
%TO.C,J20*%
X107746800Y-49479200D03*
X107746800Y-52019200D03*
%TO.C,5V_1*%
X107751800Y-37639200D03*
%TO.C,5V_2*%
X107751800Y-41351200D03*
%TO.C,5V_3*%
X107756800Y-45086800D03*
%TO.C,J14*%
X109829600Y-78282800D03*
%TO.C,J15*%
X109853000Y-81979200D03*
%TO.C,M1*%
X109982000Y-98907600D03*
%TO.C,J14*%
X112369600Y-78282800D03*
%TO.C,J15*%
X112393000Y-81979200D03*
%TO.C,M1*%
X112522000Y-98907600D03*
%TO.C,J14*%
X114909600Y-78282800D03*
%TO.C,J15*%
X114933000Y-81979200D03*
%TO.C,J18*%
X116433600Y-40233600D03*
%TO.C,U7*%
X116916200Y-61990600D03*
X116916200Y-64530600D03*
X116916200Y-67070600D03*
X116916200Y-69610600D03*
X116916200Y-72150600D03*
X116916200Y-74690600D03*
%TO.C,J23*%
X117932200Y-92811600D03*
%TO.C,J18*%
X118973600Y-40233600D03*
%TO.C,U2*%
X120167400Y-63778500D03*
%TO.C,J23*%
X120472200Y-92811600D03*
%TO.C,J18*%
X121513600Y-40233600D03*
%TO.C,J12*%
X122529600Y-59994800D03*
%TO.C,U3*%
X122569600Y-56866000D03*
X122707400Y-43713400D03*
%TO.C,U2*%
X122707400Y-63778500D03*
%TO.C,J23*%
X123012200Y-92811600D03*
%TO.C,J18*%
X124053600Y-40233600D03*
%TO.C,J12*%
X125069600Y-59994800D03*
%TO.C,U3*%
X125109600Y-56866000D03*
X125247400Y-43713400D03*
%TO.C,U2*%
X125247400Y-63778500D03*
%TO.C,J23*%
X125552200Y-92811600D03*
%TO.C,J12*%
X127609600Y-59994800D03*
%TO.C,U3*%
X127649600Y-56866000D03*
%TO.C,J17*%
X127660400Y-40233600D03*
%TO.C,U3*%
X127787400Y-43713400D03*
%TO.C,U2*%
X127787400Y-63778500D03*
%TO.C,J23*%
X128092200Y-92811600D03*
%TO.C,J12*%
X130149600Y-59994800D03*
%TO.C,U3*%
X130189600Y-56866000D03*
%TO.C,J17*%
X130200400Y-40233600D03*
%TO.C,U3*%
X130327400Y-43713400D03*
%TO.C,J23*%
X130632200Y-92811600D03*
%TO.C,J12*%
X132689600Y-59994800D03*
%TO.C,U3*%
X132729600Y-56866000D03*
%TO.C,J17*%
X132740400Y-40233600D03*
%TO.C,U3*%
X132867400Y-43713400D03*
%TO.C,J23*%
X133172200Y-92811600D03*
%TO.C,J12*%
X135229600Y-59994800D03*
%TO.C,U3*%
X135269600Y-56866000D03*
%TO.C,J17*%
X135280400Y-40233600D03*
%TO.C,U3*%
X135407400Y-43713400D03*
%TO.C,J23*%
X135712200Y-92811600D03*
D15*
%TO.C,J3*%
X124206000Y-85293200D03*
X124206000Y-87833200D03*
M02*
