%TF.GenerationSoftware,KiCad,Pcbnew,8.0.2*%
%TF.CreationDate,2024-07-21T18:01:21+02:00*%
%TF.ProjectId,CzlapCzlapTOP,437a6c61-7043-47a6-9c61-70544f502e6b,rev?*%
%TF.SameCoordinates,Original*%
%TF.FileFunction,Legend,Bot*%
%TF.FilePolarity,Positive*%
%FSLAX46Y46*%
G04 Gerber Fmt 4.6, Leading zero omitted, Abs format (unit mm)*
G04 Created by KiCad (PCBNEW 8.0.2) date 2024-07-21 18:01:21*
%MOMM*%
%LPD*%
G01*
G04 APERTURE LIST*
%ADD10C,0.150000*%
%ADD11C,0.120000*%
G04 APERTURE END LIST*
D10*
X115246819Y-93713076D02*
X114246819Y-93713076D01*
X114246819Y-93713076D02*
X114961104Y-94046409D01*
X114961104Y-94046409D02*
X114246819Y-94379742D01*
X114246819Y-94379742D02*
X115246819Y-94379742D01*
X115246819Y-95379742D02*
X115246819Y-94808314D01*
X115246819Y-95094028D02*
X114246819Y-95094028D01*
X114246819Y-95094028D02*
X114389676Y-94998790D01*
X114389676Y-94998790D02*
X114484914Y-94903552D01*
X114484914Y-94903552D02*
X114532533Y-94808314D01*
D11*
%TO.C,M1*%
X108652000Y-94807600D02*
X108652000Y-97467600D01*
X108652000Y-97467600D02*
X113852000Y-97467600D01*
X109602000Y-88807600D02*
X110362000Y-88807600D01*
X109602000Y-94807600D02*
X109602000Y-88807600D01*
X109602000Y-97467600D02*
X109602000Y-97864671D01*
X110362000Y-88807600D02*
X110362000Y-94807600D01*
X110362000Y-97467600D02*
X110362000Y-97864671D01*
X111252000Y-94807600D02*
X111252000Y-97467600D01*
X112142000Y-88807600D02*
X112902000Y-88807600D01*
X112142000Y-94807600D02*
X112142000Y-88807600D01*
X112142000Y-97467600D02*
X112142000Y-97797600D01*
X112242000Y-88807600D02*
X112242000Y-94807600D01*
X112362000Y-88807600D02*
X112362000Y-94807600D01*
X112482000Y-88807600D02*
X112482000Y-94807600D01*
X112602000Y-88807600D02*
X112602000Y-94807600D01*
X112722000Y-88807600D02*
X112722000Y-94807600D01*
X112842000Y-88807600D02*
X112842000Y-94807600D01*
X112902000Y-88807600D02*
X112902000Y-94807600D01*
X112902000Y-97467600D02*
X112902000Y-97797600D01*
X113792000Y-98907600D02*
X113792000Y-100177600D01*
X113792000Y-100177600D02*
X112522000Y-100177600D01*
X113852000Y-94807600D02*
X108652000Y-94807600D01*
X113852000Y-97467600D02*
X113852000Y-94807600D01*
%TD*%
M02*
