%TF.GenerationSoftware,KiCad,Pcbnew,8.0.2*%
%TF.CreationDate,2024-07-21T17:00:07+02:00*%
%TF.ProjectId,CzlapCzlapBOT,437a6c61-7043-47a6-9c61-70424f542e6b,rev?*%
%TF.SameCoordinates,Original*%
%TF.FileFunction,Legend,Top*%
%TF.FilePolarity,Positive*%
%FSLAX46Y46*%
G04 Gerber Fmt 4.6, Leading zero omitted, Abs format (unit mm)*
G04 Created by KiCad (PCBNEW 8.0.2) date 2024-07-21 17:00:07*
%MOMM*%
%LPD*%
G01*
G04 APERTURE LIST*
%ADD10C,0.200000*%
%ADD11C,0.150000*%
%ADD12C,0.750000*%
%ADD13C,0.100000*%
%ADD14C,0.120000*%
G04 APERTURE END LIST*
D10*
X37329200Y-105816000D02*
X137329200Y-105816000D01*
X137329200Y-167170000D01*
X37329200Y-167170000D01*
X37329200Y-105816000D01*
D11*
X108605026Y-132229605D02*
X108569312Y-132265320D01*
X108569312Y-132265320D02*
X108462169Y-132301034D01*
X108462169Y-132301034D02*
X108390741Y-132301034D01*
X108390741Y-132301034D02*
X108283598Y-132265320D01*
X108283598Y-132265320D02*
X108212169Y-132193891D01*
X108212169Y-132193891D02*
X108176455Y-132122462D01*
X108176455Y-132122462D02*
X108140741Y-131979605D01*
X108140741Y-131979605D02*
X108140741Y-131872462D01*
X108140741Y-131872462D02*
X108176455Y-131729605D01*
X108176455Y-131729605D02*
X108212169Y-131658177D01*
X108212169Y-131658177D02*
X108283598Y-131586748D01*
X108283598Y-131586748D02*
X108390741Y-131551034D01*
X108390741Y-131551034D02*
X108462169Y-131551034D01*
X108462169Y-131551034D02*
X108569312Y-131586748D01*
X108569312Y-131586748D02*
X108605026Y-131622462D01*
X109319312Y-132301034D02*
X108890741Y-132301034D01*
X109105026Y-132301034D02*
X109105026Y-131551034D01*
X109105026Y-131551034D02*
X109033598Y-131658177D01*
X109033598Y-131658177D02*
X108962169Y-131729605D01*
X108962169Y-131729605D02*
X108890741Y-131765320D01*
X108605026Y-134644521D02*
X108569312Y-134680236D01*
X108569312Y-134680236D02*
X108462169Y-134715950D01*
X108462169Y-134715950D02*
X108390741Y-134715950D01*
X108390741Y-134715950D02*
X108283598Y-134680236D01*
X108283598Y-134680236D02*
X108212169Y-134608807D01*
X108212169Y-134608807D02*
X108176455Y-134537378D01*
X108176455Y-134537378D02*
X108140741Y-134394521D01*
X108140741Y-134394521D02*
X108140741Y-134287378D01*
X108140741Y-134287378D02*
X108176455Y-134144521D01*
X108176455Y-134144521D02*
X108212169Y-134073093D01*
X108212169Y-134073093D02*
X108283598Y-134001664D01*
X108283598Y-134001664D02*
X108390741Y-133965950D01*
X108390741Y-133965950D02*
X108462169Y-133965950D01*
X108462169Y-133965950D02*
X108569312Y-134001664D01*
X108569312Y-134001664D02*
X108605026Y-134037378D01*
X108890741Y-134037378D02*
X108926455Y-134001664D01*
X108926455Y-134001664D02*
X108997884Y-133965950D01*
X108997884Y-133965950D02*
X109176455Y-133965950D01*
X109176455Y-133965950D02*
X109247884Y-134001664D01*
X109247884Y-134001664D02*
X109283598Y-134037378D01*
X109283598Y-134037378D02*
X109319312Y-134108807D01*
X109319312Y-134108807D02*
X109319312Y-134180236D01*
X109319312Y-134180236D02*
X109283598Y-134287378D01*
X109283598Y-134287378D02*
X108855026Y-134715950D01*
X108855026Y-134715950D02*
X109319312Y-134715950D01*
X108605026Y-137059437D02*
X108569312Y-137095152D01*
X108569312Y-137095152D02*
X108462169Y-137130866D01*
X108462169Y-137130866D02*
X108390741Y-137130866D01*
X108390741Y-137130866D02*
X108283598Y-137095152D01*
X108283598Y-137095152D02*
X108212169Y-137023723D01*
X108212169Y-137023723D02*
X108176455Y-136952294D01*
X108176455Y-136952294D02*
X108140741Y-136809437D01*
X108140741Y-136809437D02*
X108140741Y-136702294D01*
X108140741Y-136702294D02*
X108176455Y-136559437D01*
X108176455Y-136559437D02*
X108212169Y-136488009D01*
X108212169Y-136488009D02*
X108283598Y-136416580D01*
X108283598Y-136416580D02*
X108390741Y-136380866D01*
X108390741Y-136380866D02*
X108462169Y-136380866D01*
X108462169Y-136380866D02*
X108569312Y-136416580D01*
X108569312Y-136416580D02*
X108605026Y-136452294D01*
X108855026Y-136380866D02*
X109319312Y-136380866D01*
X109319312Y-136380866D02*
X109069312Y-136666580D01*
X109069312Y-136666580D02*
X109176455Y-136666580D01*
X109176455Y-136666580D02*
X109247884Y-136702294D01*
X109247884Y-136702294D02*
X109283598Y-136738009D01*
X109283598Y-136738009D02*
X109319312Y-136809437D01*
X109319312Y-136809437D02*
X109319312Y-136988009D01*
X109319312Y-136988009D02*
X109283598Y-137059437D01*
X109283598Y-137059437D02*
X109247884Y-137095152D01*
X109247884Y-137095152D02*
X109176455Y-137130866D01*
X109176455Y-137130866D02*
X108962169Y-137130866D01*
X108962169Y-137130866D02*
X108890741Y-137095152D01*
X108890741Y-137095152D02*
X108855026Y-137059437D01*
X108176455Y-139545782D02*
X108176455Y-138795782D01*
X108176455Y-138795782D02*
X108355026Y-138795782D01*
X108355026Y-138795782D02*
X108462169Y-138831496D01*
X108462169Y-138831496D02*
X108533598Y-138902925D01*
X108533598Y-138902925D02*
X108569312Y-138974353D01*
X108569312Y-138974353D02*
X108605026Y-139117210D01*
X108605026Y-139117210D02*
X108605026Y-139224353D01*
X108605026Y-139224353D02*
X108569312Y-139367210D01*
X108569312Y-139367210D02*
X108533598Y-139438639D01*
X108533598Y-139438639D02*
X108462169Y-139510068D01*
X108462169Y-139510068D02*
X108355026Y-139545782D01*
X108355026Y-139545782D02*
X108176455Y-139545782D01*
X108855026Y-138795782D02*
X109319312Y-138795782D01*
X109319312Y-138795782D02*
X109069312Y-139081496D01*
X109069312Y-139081496D02*
X109176455Y-139081496D01*
X109176455Y-139081496D02*
X109247884Y-139117210D01*
X109247884Y-139117210D02*
X109283598Y-139152925D01*
X109283598Y-139152925D02*
X109319312Y-139224353D01*
X109319312Y-139224353D02*
X109319312Y-139402925D01*
X109319312Y-139402925D02*
X109283598Y-139474353D01*
X109283598Y-139474353D02*
X109247884Y-139510068D01*
X109247884Y-139510068D02*
X109176455Y-139545782D01*
X109176455Y-139545782D02*
X108962169Y-139545782D01*
X108962169Y-139545782D02*
X108890741Y-139510068D01*
X108890741Y-139510068D02*
X108855026Y-139474353D01*
X108176455Y-141960698D02*
X108176455Y-141210698D01*
X108176455Y-141210698D02*
X108355026Y-141210698D01*
X108355026Y-141210698D02*
X108462169Y-141246412D01*
X108462169Y-141246412D02*
X108533598Y-141317841D01*
X108533598Y-141317841D02*
X108569312Y-141389269D01*
X108569312Y-141389269D02*
X108605026Y-141532126D01*
X108605026Y-141532126D02*
X108605026Y-141639269D01*
X108605026Y-141639269D02*
X108569312Y-141782126D01*
X108569312Y-141782126D02*
X108533598Y-141853555D01*
X108533598Y-141853555D02*
X108462169Y-141924984D01*
X108462169Y-141924984D02*
X108355026Y-141960698D01*
X108355026Y-141960698D02*
X108176455Y-141960698D01*
X108890741Y-141282126D02*
X108926455Y-141246412D01*
X108926455Y-141246412D02*
X108997884Y-141210698D01*
X108997884Y-141210698D02*
X109176455Y-141210698D01*
X109176455Y-141210698D02*
X109247884Y-141246412D01*
X109247884Y-141246412D02*
X109283598Y-141282126D01*
X109283598Y-141282126D02*
X109319312Y-141353555D01*
X109319312Y-141353555D02*
X109319312Y-141424984D01*
X109319312Y-141424984D02*
X109283598Y-141532126D01*
X109283598Y-141532126D02*
X108855026Y-141960698D01*
X108855026Y-141960698D02*
X109319312Y-141960698D01*
X108176455Y-144375614D02*
X108176455Y-143625614D01*
X108176455Y-143625614D02*
X108355026Y-143625614D01*
X108355026Y-143625614D02*
X108462169Y-143661328D01*
X108462169Y-143661328D02*
X108533598Y-143732757D01*
X108533598Y-143732757D02*
X108569312Y-143804185D01*
X108569312Y-143804185D02*
X108605026Y-143947042D01*
X108605026Y-143947042D02*
X108605026Y-144054185D01*
X108605026Y-144054185D02*
X108569312Y-144197042D01*
X108569312Y-144197042D02*
X108533598Y-144268471D01*
X108533598Y-144268471D02*
X108462169Y-144339900D01*
X108462169Y-144339900D02*
X108355026Y-144375614D01*
X108355026Y-144375614D02*
X108176455Y-144375614D01*
X109319312Y-144375614D02*
X108890741Y-144375614D01*
X109105026Y-144375614D02*
X109105026Y-143625614D01*
X109105026Y-143625614D02*
X109033598Y-143732757D01*
X109033598Y-143732757D02*
X108962169Y-143804185D01*
X108962169Y-143804185D02*
X108890741Y-143839900D01*
X103869541Y-124677214D02*
X103869541Y-125212928D01*
X103869541Y-125212928D02*
X103833826Y-125320071D01*
X103833826Y-125320071D02*
X103762398Y-125391500D01*
X103762398Y-125391500D02*
X103655255Y-125427214D01*
X103655255Y-125427214D02*
X103583826Y-125427214D01*
X104548113Y-124927214D02*
X104548113Y-125427214D01*
X104226684Y-124927214D02*
X104226684Y-125320071D01*
X104226684Y-125320071D02*
X104262398Y-125391500D01*
X104262398Y-125391500D02*
X104333827Y-125427214D01*
X104333827Y-125427214D02*
X104440970Y-125427214D01*
X104440970Y-125427214D02*
X104512398Y-125391500D01*
X104512398Y-125391500D02*
X104548113Y-125355785D01*
X104905255Y-125427214D02*
X104905255Y-124927214D01*
X104905255Y-124998642D02*
X104940969Y-124962928D01*
X104940969Y-124962928D02*
X105012398Y-124927214D01*
X105012398Y-124927214D02*
X105119541Y-124927214D01*
X105119541Y-124927214D02*
X105190969Y-124962928D01*
X105190969Y-124962928D02*
X105226684Y-125034357D01*
X105226684Y-125034357D02*
X105226684Y-125427214D01*
X105226684Y-125034357D02*
X105262398Y-124962928D01*
X105262398Y-124962928D02*
X105333826Y-124927214D01*
X105333826Y-124927214D02*
X105440969Y-124927214D01*
X105440969Y-124927214D02*
X105512398Y-124962928D01*
X105512398Y-124962928D02*
X105548112Y-125034357D01*
X105548112Y-125034357D02*
X105548112Y-125427214D01*
X105905255Y-124927214D02*
X105905255Y-125677214D01*
X105905255Y-124962928D02*
X105976684Y-124927214D01*
X105976684Y-124927214D02*
X106119541Y-124927214D01*
X106119541Y-124927214D02*
X106190969Y-124962928D01*
X106190969Y-124962928D02*
X106226684Y-124998642D01*
X106226684Y-124998642D02*
X106262398Y-125070071D01*
X106262398Y-125070071D02*
X106262398Y-125284357D01*
X106262398Y-125284357D02*
X106226684Y-125355785D01*
X106226684Y-125355785D02*
X106190969Y-125391500D01*
X106190969Y-125391500D02*
X106119541Y-125427214D01*
X106119541Y-125427214D02*
X105976684Y-125427214D01*
X105976684Y-125427214D02*
X105905255Y-125391500D01*
X106869540Y-125391500D02*
X106798112Y-125427214D01*
X106798112Y-125427214D02*
X106655255Y-125427214D01*
X106655255Y-125427214D02*
X106583826Y-125391500D01*
X106583826Y-125391500D02*
X106548112Y-125320071D01*
X106548112Y-125320071D02*
X106548112Y-125034357D01*
X106548112Y-125034357D02*
X106583826Y-124962928D01*
X106583826Y-124962928D02*
X106655255Y-124927214D01*
X106655255Y-124927214D02*
X106798112Y-124927214D01*
X106798112Y-124927214D02*
X106869540Y-124962928D01*
X106869540Y-124962928D02*
X106905255Y-125034357D01*
X106905255Y-125034357D02*
X106905255Y-125105785D01*
X106905255Y-125105785D02*
X106548112Y-125177214D01*
X107226683Y-125427214D02*
X107226683Y-124927214D01*
X107226683Y-125070071D02*
X107262397Y-124998642D01*
X107262397Y-124998642D02*
X107298112Y-124962928D01*
X107298112Y-124962928D02*
X107369540Y-124927214D01*
X107369540Y-124927214D02*
X107440969Y-124927214D01*
D12*
X71650734Y-148426526D02*
X74290050Y-146902716D01*
X73732297Y-148984279D02*
X72208487Y-146344963D01*
X86496884Y-139855097D02*
X89136199Y-138331288D01*
D11*
X107988341Y-114560748D02*
X108345484Y-114560748D01*
X107916912Y-114775034D02*
X108166912Y-114025034D01*
X108166912Y-114025034D02*
X108416912Y-114775034D01*
X108595483Y-114025034D02*
X109059769Y-114025034D01*
X109059769Y-114025034D02*
X108809769Y-114310748D01*
X108809769Y-114310748D02*
X108916912Y-114310748D01*
X108916912Y-114310748D02*
X108988341Y-114346462D01*
X108988341Y-114346462D02*
X109024055Y-114382177D01*
X109024055Y-114382177D02*
X109059769Y-114453605D01*
X109059769Y-114453605D02*
X109059769Y-114632177D01*
X109059769Y-114632177D02*
X109024055Y-114703605D01*
X109024055Y-114703605D02*
X108988341Y-114739320D01*
X108988341Y-114739320D02*
X108916912Y-114775034D01*
X108916912Y-114775034D02*
X108702626Y-114775034D01*
X108702626Y-114775034D02*
X108631198Y-114739320D01*
X108631198Y-114739320D02*
X108595483Y-114703605D01*
X107988341Y-116975664D02*
X108345484Y-116975664D01*
X107916912Y-117189950D02*
X108166912Y-116439950D01*
X108166912Y-116439950D02*
X108416912Y-117189950D01*
X108631198Y-116511378D02*
X108666912Y-116475664D01*
X108666912Y-116475664D02*
X108738341Y-116439950D01*
X108738341Y-116439950D02*
X108916912Y-116439950D01*
X108916912Y-116439950D02*
X108988341Y-116475664D01*
X108988341Y-116475664D02*
X109024055Y-116511378D01*
X109024055Y-116511378D02*
X109059769Y-116582807D01*
X109059769Y-116582807D02*
X109059769Y-116654236D01*
X109059769Y-116654236D02*
X109024055Y-116761378D01*
X109024055Y-116761378D02*
X108595483Y-117189950D01*
X108595483Y-117189950D02*
X109059769Y-117189950D01*
X107988341Y-119390580D02*
X108345484Y-119390580D01*
X107916912Y-119604866D02*
X108166912Y-118854866D01*
X108166912Y-118854866D02*
X108416912Y-119604866D01*
X109059769Y-119604866D02*
X108631198Y-119604866D01*
X108845483Y-119604866D02*
X108845483Y-118854866D01*
X108845483Y-118854866D02*
X108774055Y-118962009D01*
X108774055Y-118962009D02*
X108702626Y-119033437D01*
X108702626Y-119033437D02*
X108631198Y-119069152D01*
X108274055Y-121626925D02*
X108381198Y-121662639D01*
X108381198Y-121662639D02*
X108416912Y-121698353D01*
X108416912Y-121698353D02*
X108452626Y-121769782D01*
X108452626Y-121769782D02*
X108452626Y-121876925D01*
X108452626Y-121876925D02*
X108416912Y-121948353D01*
X108416912Y-121948353D02*
X108381198Y-121984068D01*
X108381198Y-121984068D02*
X108309769Y-122019782D01*
X108309769Y-122019782D02*
X108024055Y-122019782D01*
X108024055Y-122019782D02*
X108024055Y-121269782D01*
X108024055Y-121269782D02*
X108274055Y-121269782D01*
X108274055Y-121269782D02*
X108345484Y-121305496D01*
X108345484Y-121305496D02*
X108381198Y-121341210D01*
X108381198Y-121341210D02*
X108416912Y-121412639D01*
X108416912Y-121412639D02*
X108416912Y-121484068D01*
X108416912Y-121484068D02*
X108381198Y-121555496D01*
X108381198Y-121555496D02*
X108345484Y-121591210D01*
X108345484Y-121591210D02*
X108274055Y-121626925D01*
X108274055Y-121626925D02*
X108024055Y-121626925D01*
X109166912Y-122019782D02*
X108738341Y-122019782D01*
X108952626Y-122019782D02*
X108952626Y-121269782D01*
X108952626Y-121269782D02*
X108881198Y-121376925D01*
X108881198Y-121376925D02*
X108809769Y-121448353D01*
X108809769Y-121448353D02*
X108738341Y-121484068D01*
X108274055Y-124041841D02*
X108381198Y-124077555D01*
X108381198Y-124077555D02*
X108416912Y-124113269D01*
X108416912Y-124113269D02*
X108452626Y-124184698D01*
X108452626Y-124184698D02*
X108452626Y-124291841D01*
X108452626Y-124291841D02*
X108416912Y-124363269D01*
X108416912Y-124363269D02*
X108381198Y-124398984D01*
X108381198Y-124398984D02*
X108309769Y-124434698D01*
X108309769Y-124434698D02*
X108024055Y-124434698D01*
X108024055Y-124434698D02*
X108024055Y-123684698D01*
X108024055Y-123684698D02*
X108274055Y-123684698D01*
X108274055Y-123684698D02*
X108345484Y-123720412D01*
X108345484Y-123720412D02*
X108381198Y-123756126D01*
X108381198Y-123756126D02*
X108416912Y-123827555D01*
X108416912Y-123827555D02*
X108416912Y-123898984D01*
X108416912Y-123898984D02*
X108381198Y-123970412D01*
X108381198Y-123970412D02*
X108345484Y-124006126D01*
X108345484Y-124006126D02*
X108274055Y-124041841D01*
X108274055Y-124041841D02*
X108024055Y-124041841D01*
X108738341Y-123756126D02*
X108774055Y-123720412D01*
X108774055Y-123720412D02*
X108845484Y-123684698D01*
X108845484Y-123684698D02*
X109024055Y-123684698D01*
X109024055Y-123684698D02*
X109095484Y-123720412D01*
X109095484Y-123720412D02*
X109131198Y-123756126D01*
X109131198Y-123756126D02*
X109166912Y-123827555D01*
X109166912Y-123827555D02*
X109166912Y-123898984D01*
X109166912Y-123898984D02*
X109131198Y-124006126D01*
X109131198Y-124006126D02*
X108702626Y-124434698D01*
X108702626Y-124434698D02*
X109166912Y-124434698D01*
X108274055Y-126456757D02*
X108381198Y-126492471D01*
X108381198Y-126492471D02*
X108416912Y-126528185D01*
X108416912Y-126528185D02*
X108452626Y-126599614D01*
X108452626Y-126599614D02*
X108452626Y-126706757D01*
X108452626Y-126706757D02*
X108416912Y-126778185D01*
X108416912Y-126778185D02*
X108381198Y-126813900D01*
X108381198Y-126813900D02*
X108309769Y-126849614D01*
X108309769Y-126849614D02*
X108024055Y-126849614D01*
X108024055Y-126849614D02*
X108024055Y-126099614D01*
X108024055Y-126099614D02*
X108274055Y-126099614D01*
X108274055Y-126099614D02*
X108345484Y-126135328D01*
X108345484Y-126135328D02*
X108381198Y-126171042D01*
X108381198Y-126171042D02*
X108416912Y-126242471D01*
X108416912Y-126242471D02*
X108416912Y-126313900D01*
X108416912Y-126313900D02*
X108381198Y-126385328D01*
X108381198Y-126385328D02*
X108345484Y-126421042D01*
X108345484Y-126421042D02*
X108274055Y-126456757D01*
X108274055Y-126456757D02*
X108024055Y-126456757D01*
X108702626Y-126099614D02*
X109166912Y-126099614D01*
X109166912Y-126099614D02*
X108916912Y-126385328D01*
X108916912Y-126385328D02*
X109024055Y-126385328D01*
X109024055Y-126385328D02*
X109095484Y-126421042D01*
X109095484Y-126421042D02*
X109131198Y-126456757D01*
X109131198Y-126456757D02*
X109166912Y-126528185D01*
X109166912Y-126528185D02*
X109166912Y-126706757D01*
X109166912Y-126706757D02*
X109131198Y-126778185D01*
X109131198Y-126778185D02*
X109095484Y-126813900D01*
X109095484Y-126813900D02*
X109024055Y-126849614D01*
X109024055Y-126849614D02*
X108809769Y-126849614D01*
X108809769Y-126849614D02*
X108738341Y-126813900D01*
X108738341Y-126813900D02*
X108702626Y-126778185D01*
X96953814Y-133314887D02*
X96953814Y-133743458D01*
X96953814Y-133529173D02*
X96203814Y-133529173D01*
X96203814Y-133529173D02*
X96310957Y-133600601D01*
X96310957Y-133600601D02*
X96382385Y-133672030D01*
X96382385Y-133672030D02*
X96418100Y-133743458D01*
X96275242Y-133029172D02*
X96239528Y-132993458D01*
X96239528Y-132993458D02*
X96203814Y-132922030D01*
X96203814Y-132922030D02*
X96203814Y-132743458D01*
X96203814Y-132743458D02*
X96239528Y-132672030D01*
X96239528Y-132672030D02*
X96275242Y-132636315D01*
X96275242Y-132636315D02*
X96346671Y-132600601D01*
X96346671Y-132600601D02*
X96418100Y-132600601D01*
X96418100Y-132600601D02*
X96525242Y-132636315D01*
X96525242Y-132636315D02*
X96953814Y-133064887D01*
X96953814Y-133064887D02*
X96953814Y-132600601D01*
X96203814Y-132386315D02*
X96953814Y-132136315D01*
X96953814Y-132136315D02*
X96203814Y-131886315D01*
X60174866Y-111030809D02*
X59841533Y-111030809D01*
X59841533Y-111554619D02*
X59841533Y-110554619D01*
X59841533Y-110554619D02*
X60317723Y-110554619D01*
X60603438Y-110554619D02*
X61222485Y-110554619D01*
X61222485Y-110554619D02*
X60889152Y-110935571D01*
X60889152Y-110935571D02*
X61032009Y-110935571D01*
X61032009Y-110935571D02*
X61127247Y-110983190D01*
X61127247Y-110983190D02*
X61174866Y-111030809D01*
X61174866Y-111030809D02*
X61222485Y-111126047D01*
X61222485Y-111126047D02*
X61222485Y-111364142D01*
X61222485Y-111364142D02*
X61174866Y-111459380D01*
X61174866Y-111459380D02*
X61127247Y-111507000D01*
X61127247Y-111507000D02*
X61032009Y-111554619D01*
X61032009Y-111554619D02*
X60746295Y-111554619D01*
X60746295Y-111554619D02*
X60651057Y-111507000D01*
X60651057Y-111507000D02*
X60603438Y-111459380D01*
D13*
X51257295Y-134077419D02*
X51257295Y-134886942D01*
X51257295Y-134886942D02*
X51304914Y-134982180D01*
X51304914Y-134982180D02*
X51352533Y-135029800D01*
X51352533Y-135029800D02*
X51447771Y-135077419D01*
X51447771Y-135077419D02*
X51638247Y-135077419D01*
X51638247Y-135077419D02*
X51733485Y-135029800D01*
X51733485Y-135029800D02*
X51781104Y-134982180D01*
X51781104Y-134982180D02*
X51828723Y-134886942D01*
X51828723Y-134886942D02*
X51828723Y-134077419D01*
X52733485Y-134077419D02*
X52543009Y-134077419D01*
X52543009Y-134077419D02*
X52447771Y-134125038D01*
X52447771Y-134125038D02*
X52400152Y-134172657D01*
X52400152Y-134172657D02*
X52304914Y-134315514D01*
X52304914Y-134315514D02*
X52257295Y-134505990D01*
X52257295Y-134505990D02*
X52257295Y-134886942D01*
X52257295Y-134886942D02*
X52304914Y-134982180D01*
X52304914Y-134982180D02*
X52352533Y-135029800D01*
X52352533Y-135029800D02*
X52447771Y-135077419D01*
X52447771Y-135077419D02*
X52638247Y-135077419D01*
X52638247Y-135077419D02*
X52733485Y-135029800D01*
X52733485Y-135029800D02*
X52781104Y-134982180D01*
X52781104Y-134982180D02*
X52828723Y-134886942D01*
X52828723Y-134886942D02*
X52828723Y-134648847D01*
X52828723Y-134648847D02*
X52781104Y-134553609D01*
X52781104Y-134553609D02*
X52733485Y-134505990D01*
X52733485Y-134505990D02*
X52638247Y-134458371D01*
X52638247Y-134458371D02*
X52447771Y-134458371D01*
X52447771Y-134458371D02*
X52352533Y-134505990D01*
X52352533Y-134505990D02*
X52304914Y-134553609D01*
X52304914Y-134553609D02*
X52257295Y-134648847D01*
D11*
X68370076Y-158338209D02*
X68036743Y-158338209D01*
X68036743Y-158862019D02*
X68036743Y-157862019D01*
X68036743Y-157862019D02*
X68512933Y-157862019D01*
X69417695Y-158862019D02*
X68846267Y-158862019D01*
X69131981Y-158862019D02*
X69131981Y-157862019D01*
X69131981Y-157862019D02*
X69036743Y-158004876D01*
X69036743Y-158004876D02*
X68941505Y-158100114D01*
X68941505Y-158100114D02*
X68846267Y-158147733D01*
X70370076Y-158862019D02*
X69798648Y-158862019D01*
X70084362Y-158862019D02*
X70084362Y-157862019D01*
X70084362Y-157862019D02*
X69989124Y-158004876D01*
X69989124Y-158004876D02*
X69893886Y-158100114D01*
X69893886Y-158100114D02*
X69798648Y-158147733D01*
X94279209Y-123843533D02*
X94279209Y-124176866D01*
X94803019Y-124176866D02*
X93803019Y-124176866D01*
X93803019Y-124176866D02*
X93803019Y-123700676D01*
X94803019Y-123272104D02*
X94803019Y-123081628D01*
X94803019Y-123081628D02*
X94755400Y-122986390D01*
X94755400Y-122986390D02*
X94707780Y-122938771D01*
X94707780Y-122938771D02*
X94564923Y-122843533D01*
X94564923Y-122843533D02*
X94374447Y-122795914D01*
X94374447Y-122795914D02*
X93993495Y-122795914D01*
X93993495Y-122795914D02*
X93898257Y-122843533D01*
X93898257Y-122843533D02*
X93850638Y-122891152D01*
X93850638Y-122891152D02*
X93803019Y-122986390D01*
X93803019Y-122986390D02*
X93803019Y-123176866D01*
X93803019Y-123176866D02*
X93850638Y-123272104D01*
X93850638Y-123272104D02*
X93898257Y-123319723D01*
X93898257Y-123319723D02*
X93993495Y-123367342D01*
X93993495Y-123367342D02*
X94231590Y-123367342D01*
X94231590Y-123367342D02*
X94326828Y-123319723D01*
X94326828Y-123319723D02*
X94374447Y-123272104D01*
X94374447Y-123272104D02*
X94422066Y-123176866D01*
X94422066Y-123176866D02*
X94422066Y-122986390D01*
X94422066Y-122986390D02*
X94374447Y-122891152D01*
X94374447Y-122891152D02*
X94326828Y-122843533D01*
X94326828Y-122843533D02*
X94231590Y-122795914D01*
X51090724Y-158188819D02*
X51090724Y-157188819D01*
X51090724Y-157188819D02*
X51424057Y-157903104D01*
X51424057Y-157903104D02*
X51757390Y-157188819D01*
X51757390Y-157188819D02*
X51757390Y-158188819D01*
X51995486Y-158284057D02*
X52757390Y-158284057D01*
X52995486Y-158188819D02*
X52995486Y-157188819D01*
X52995486Y-157188819D02*
X53233581Y-157188819D01*
X53233581Y-157188819D02*
X53376438Y-157236438D01*
X53376438Y-157236438D02*
X53471676Y-157331676D01*
X53471676Y-157331676D02*
X53519295Y-157426914D01*
X53519295Y-157426914D02*
X53566914Y-157617390D01*
X53566914Y-157617390D02*
X53566914Y-157760247D01*
X53566914Y-157760247D02*
X53519295Y-157950723D01*
X53519295Y-157950723D02*
X53471676Y-158045961D01*
X53471676Y-158045961D02*
X53376438Y-158141200D01*
X53376438Y-158141200D02*
X53233581Y-158188819D01*
X53233581Y-158188819D02*
X52995486Y-158188819D01*
X54519295Y-158188819D02*
X53947867Y-158188819D01*
X54233581Y-158188819D02*
X54233581Y-157188819D01*
X54233581Y-157188819D02*
X54138343Y-157331676D01*
X54138343Y-157331676D02*
X54043105Y-157426914D01*
X54043105Y-157426914D02*
X53947867Y-157474533D01*
X42719666Y-151188009D02*
X42386333Y-151188009D01*
X42386333Y-151711819D02*
X42386333Y-150711819D01*
X42386333Y-150711819D02*
X42862523Y-150711819D01*
X43672047Y-151045152D02*
X43672047Y-151711819D01*
X43433952Y-150664200D02*
X43195857Y-151378485D01*
X43195857Y-151378485D02*
X43814904Y-151378485D01*
X103690943Y-109170000D02*
X103833800Y-109217619D01*
X103833800Y-109217619D02*
X104071895Y-109217619D01*
X104071895Y-109217619D02*
X104167133Y-109170000D01*
X104167133Y-109170000D02*
X104214752Y-109122380D01*
X104214752Y-109122380D02*
X104262371Y-109027142D01*
X104262371Y-109027142D02*
X104262371Y-108931904D01*
X104262371Y-108931904D02*
X104214752Y-108836666D01*
X104214752Y-108836666D02*
X104167133Y-108789047D01*
X104167133Y-108789047D02*
X104071895Y-108741428D01*
X104071895Y-108741428D02*
X103881419Y-108693809D01*
X103881419Y-108693809D02*
X103786181Y-108646190D01*
X103786181Y-108646190D02*
X103738562Y-108598571D01*
X103738562Y-108598571D02*
X103690943Y-108503333D01*
X103690943Y-108503333D02*
X103690943Y-108408095D01*
X103690943Y-108408095D02*
X103738562Y-108312857D01*
X103738562Y-108312857D02*
X103786181Y-108265238D01*
X103786181Y-108265238D02*
X103881419Y-108217619D01*
X103881419Y-108217619D02*
X104119514Y-108217619D01*
X104119514Y-108217619D02*
X104262371Y-108265238D01*
X104452848Y-109312857D02*
X105214752Y-109312857D01*
X105786181Y-108693809D02*
X105929038Y-108741428D01*
X105929038Y-108741428D02*
X105976657Y-108789047D01*
X105976657Y-108789047D02*
X106024276Y-108884285D01*
X106024276Y-108884285D02*
X106024276Y-109027142D01*
X106024276Y-109027142D02*
X105976657Y-109122380D01*
X105976657Y-109122380D02*
X105929038Y-109170000D01*
X105929038Y-109170000D02*
X105833800Y-109217619D01*
X105833800Y-109217619D02*
X105452848Y-109217619D01*
X105452848Y-109217619D02*
X105452848Y-108217619D01*
X105452848Y-108217619D02*
X105786181Y-108217619D01*
X105786181Y-108217619D02*
X105881419Y-108265238D01*
X105881419Y-108265238D02*
X105929038Y-108312857D01*
X105929038Y-108312857D02*
X105976657Y-108408095D01*
X105976657Y-108408095D02*
X105976657Y-108503333D01*
X105976657Y-108503333D02*
X105929038Y-108598571D01*
X105929038Y-108598571D02*
X105881419Y-108646190D01*
X105881419Y-108646190D02*
X105786181Y-108693809D01*
X105786181Y-108693809D02*
X105452848Y-108693809D01*
X106976657Y-109217619D02*
X106405229Y-109217619D01*
X106690943Y-109217619D02*
X106690943Y-108217619D01*
X106690943Y-108217619D02*
X106595705Y-108360476D01*
X106595705Y-108360476D02*
X106500467Y-108455714D01*
X106500467Y-108455714D02*
X106405229Y-108503333D01*
D13*
X125608973Y-126511993D02*
X125608973Y-127321516D01*
X125608973Y-127321516D02*
X125656592Y-127416754D01*
X125656592Y-127416754D02*
X125704211Y-127464374D01*
X125704211Y-127464374D02*
X125799449Y-127511993D01*
X125799449Y-127511993D02*
X125989925Y-127511993D01*
X125989925Y-127511993D02*
X126085163Y-127464374D01*
X126085163Y-127464374D02*
X126132782Y-127416754D01*
X126132782Y-127416754D02*
X126180401Y-127321516D01*
X126180401Y-127321516D02*
X126180401Y-126511993D01*
X126799449Y-126940564D02*
X126704211Y-126892945D01*
X126704211Y-126892945D02*
X126656592Y-126845326D01*
X126656592Y-126845326D02*
X126608973Y-126750088D01*
X126608973Y-126750088D02*
X126608973Y-126702469D01*
X126608973Y-126702469D02*
X126656592Y-126607231D01*
X126656592Y-126607231D02*
X126704211Y-126559612D01*
X126704211Y-126559612D02*
X126799449Y-126511993D01*
X126799449Y-126511993D02*
X126989925Y-126511993D01*
X126989925Y-126511993D02*
X127085163Y-126559612D01*
X127085163Y-126559612D02*
X127132782Y-126607231D01*
X127132782Y-126607231D02*
X127180401Y-126702469D01*
X127180401Y-126702469D02*
X127180401Y-126750088D01*
X127180401Y-126750088D02*
X127132782Y-126845326D01*
X127132782Y-126845326D02*
X127085163Y-126892945D01*
X127085163Y-126892945D02*
X126989925Y-126940564D01*
X126989925Y-126940564D02*
X126799449Y-126940564D01*
X126799449Y-126940564D02*
X126704211Y-126988183D01*
X126704211Y-126988183D02*
X126656592Y-127035802D01*
X126656592Y-127035802D02*
X126608973Y-127131040D01*
X126608973Y-127131040D02*
X126608973Y-127321516D01*
X126608973Y-127321516D02*
X126656592Y-127416754D01*
X126656592Y-127416754D02*
X126704211Y-127464374D01*
X126704211Y-127464374D02*
X126799449Y-127511993D01*
X126799449Y-127511993D02*
X126989925Y-127511993D01*
X126989925Y-127511993D02*
X127085163Y-127464374D01*
X127085163Y-127464374D02*
X127132782Y-127416754D01*
X127132782Y-127416754D02*
X127180401Y-127321516D01*
X127180401Y-127321516D02*
X127180401Y-127131040D01*
X127180401Y-127131040D02*
X127132782Y-127035802D01*
X127132782Y-127035802D02*
X127085163Y-126988183D01*
X127085163Y-126988183D02*
X126989925Y-126940564D01*
D11*
X45370952Y-116837619D02*
X45370952Y-115837619D01*
X45370952Y-115837619D02*
X45704285Y-116551904D01*
X45704285Y-116551904D02*
X46037618Y-115837619D01*
X46037618Y-115837619D02*
X46037618Y-116837619D01*
X46275714Y-116932857D02*
X47037618Y-116932857D01*
X47228095Y-116551904D02*
X47704285Y-116551904D01*
X47132857Y-116837619D02*
X47466190Y-115837619D01*
X47466190Y-115837619D02*
X47799523Y-116837619D01*
X48656666Y-116837619D02*
X48085238Y-116837619D01*
X48370952Y-116837619D02*
X48370952Y-115837619D01*
X48370952Y-115837619D02*
X48275714Y-115980476D01*
X48275714Y-115980476D02*
X48180476Y-116075714D01*
X48180476Y-116075714D02*
X48085238Y-116123333D01*
X101061009Y-135131533D02*
X101061009Y-135464866D01*
X101584819Y-135464866D02*
X100584819Y-135464866D01*
X100584819Y-135464866D02*
X100584819Y-134988676D01*
X100584819Y-134179152D02*
X100584819Y-134369628D01*
X100584819Y-134369628D02*
X100632438Y-134464866D01*
X100632438Y-134464866D02*
X100680057Y-134512485D01*
X100680057Y-134512485D02*
X100822914Y-134607723D01*
X100822914Y-134607723D02*
X101013390Y-134655342D01*
X101013390Y-134655342D02*
X101394342Y-134655342D01*
X101394342Y-134655342D02*
X101489580Y-134607723D01*
X101489580Y-134607723D02*
X101537200Y-134560104D01*
X101537200Y-134560104D02*
X101584819Y-134464866D01*
X101584819Y-134464866D02*
X101584819Y-134274390D01*
X101584819Y-134274390D02*
X101537200Y-134179152D01*
X101537200Y-134179152D02*
X101489580Y-134131533D01*
X101489580Y-134131533D02*
X101394342Y-134083914D01*
X101394342Y-134083914D02*
X101156247Y-134083914D01*
X101156247Y-134083914D02*
X101061009Y-134131533D01*
X101061009Y-134131533D02*
X101013390Y-134179152D01*
X101013390Y-134179152D02*
X100965771Y-134274390D01*
X100965771Y-134274390D02*
X100965771Y-134464866D01*
X100965771Y-134464866D02*
X101013390Y-134560104D01*
X101013390Y-134560104D02*
X101061009Y-134607723D01*
X101061009Y-134607723D02*
X101156247Y-134655342D01*
X98156924Y-109522419D02*
X98156924Y-108522419D01*
X98156924Y-108522419D02*
X98490257Y-109236704D01*
X98490257Y-109236704D02*
X98823590Y-108522419D01*
X98823590Y-108522419D02*
X98823590Y-109522419D01*
X99061686Y-109617657D02*
X99823590Y-109617657D01*
X100395019Y-108998609D02*
X100537876Y-109046228D01*
X100537876Y-109046228D02*
X100585495Y-109093847D01*
X100585495Y-109093847D02*
X100633114Y-109189085D01*
X100633114Y-109189085D02*
X100633114Y-109331942D01*
X100633114Y-109331942D02*
X100585495Y-109427180D01*
X100585495Y-109427180D02*
X100537876Y-109474800D01*
X100537876Y-109474800D02*
X100442638Y-109522419D01*
X100442638Y-109522419D02*
X100061686Y-109522419D01*
X100061686Y-109522419D02*
X100061686Y-108522419D01*
X100061686Y-108522419D02*
X100395019Y-108522419D01*
X100395019Y-108522419D02*
X100490257Y-108570038D01*
X100490257Y-108570038D02*
X100537876Y-108617657D01*
X100537876Y-108617657D02*
X100585495Y-108712895D01*
X100585495Y-108712895D02*
X100585495Y-108808133D01*
X100585495Y-108808133D02*
X100537876Y-108903371D01*
X100537876Y-108903371D02*
X100490257Y-108950990D01*
X100490257Y-108950990D02*
X100395019Y-108998609D01*
X100395019Y-108998609D02*
X100061686Y-108998609D01*
X101585495Y-109522419D02*
X101014067Y-109522419D01*
X101299781Y-109522419D02*
X101299781Y-108522419D01*
X101299781Y-108522419D02*
X101204543Y-108665276D01*
X101204543Y-108665276D02*
X101109305Y-108760514D01*
X101109305Y-108760514D02*
X101014067Y-108808133D01*
X58424914Y-157766609D02*
X58091581Y-157766609D01*
X58091581Y-158290419D02*
X58091581Y-157290419D01*
X58091581Y-157290419D02*
X58567771Y-157290419D01*
X58710629Y-158385657D02*
X59472533Y-158385657D01*
X59710629Y-158290419D02*
X59710629Y-157290419D01*
X59710629Y-157290419D02*
X59948724Y-157290419D01*
X59948724Y-157290419D02*
X60091581Y-157338038D01*
X60091581Y-157338038D02*
X60186819Y-157433276D01*
X60186819Y-157433276D02*
X60234438Y-157528514D01*
X60234438Y-157528514D02*
X60282057Y-157718990D01*
X60282057Y-157718990D02*
X60282057Y-157861847D01*
X60282057Y-157861847D02*
X60234438Y-158052323D01*
X60234438Y-158052323D02*
X60186819Y-158147561D01*
X60186819Y-158147561D02*
X60091581Y-158242800D01*
X60091581Y-158242800D02*
X59948724Y-158290419D01*
X59948724Y-158290419D02*
X59710629Y-158290419D01*
X61234438Y-158290419D02*
X60663010Y-158290419D01*
X60948724Y-158290419D02*
X60948724Y-157290419D01*
X60948724Y-157290419D02*
X60853486Y-157433276D01*
X60853486Y-157433276D02*
X60758248Y-157528514D01*
X60758248Y-157528514D02*
X60663010Y-157576133D01*
X51384342Y-116445409D02*
X51051009Y-116445409D01*
X51051009Y-116969219D02*
X51051009Y-115969219D01*
X51051009Y-115969219D02*
X51527199Y-115969219D01*
X51670057Y-117064457D02*
X52431961Y-117064457D01*
X52622438Y-116683504D02*
X53098628Y-116683504D01*
X52527200Y-116969219D02*
X52860533Y-115969219D01*
X52860533Y-115969219D02*
X53193866Y-116969219D01*
X54051009Y-116969219D02*
X53479581Y-116969219D01*
X53765295Y-116969219D02*
X53765295Y-115969219D01*
X53765295Y-115969219D02*
X53670057Y-116112076D01*
X53670057Y-116112076D02*
X53574819Y-116207314D01*
X53574819Y-116207314D02*
X53479581Y-116254933D01*
X119174419Y-161837475D02*
X118174419Y-161837475D01*
X118174419Y-161837475D02*
X118888704Y-161504142D01*
X118888704Y-161504142D02*
X118174419Y-161170809D01*
X118174419Y-161170809D02*
X119174419Y-161170809D01*
X119269657Y-160932714D02*
X119269657Y-160170809D01*
X119079180Y-159361285D02*
X119126800Y-159408904D01*
X119126800Y-159408904D02*
X119174419Y-159551761D01*
X119174419Y-159551761D02*
X119174419Y-159646999D01*
X119174419Y-159646999D02*
X119126800Y-159789856D01*
X119126800Y-159789856D02*
X119031561Y-159885094D01*
X119031561Y-159885094D02*
X118936323Y-159932713D01*
X118936323Y-159932713D02*
X118745847Y-159980332D01*
X118745847Y-159980332D02*
X118602990Y-159980332D01*
X118602990Y-159980332D02*
X118412514Y-159932713D01*
X118412514Y-159932713D02*
X118317276Y-159885094D01*
X118317276Y-159885094D02*
X118222038Y-159789856D01*
X118222038Y-159789856D02*
X118174419Y-159646999D01*
X118174419Y-159646999D02*
X118174419Y-159551761D01*
X118174419Y-159551761D02*
X118222038Y-159408904D01*
X118222038Y-159408904D02*
X118269657Y-159361285D01*
X119174419Y-158408904D02*
X119174419Y-158980332D01*
X119174419Y-158694618D02*
X118174419Y-158694618D01*
X118174419Y-158694618D02*
X118317276Y-158789856D01*
X118317276Y-158789856D02*
X118412514Y-158885094D01*
X118412514Y-158885094D02*
X118460133Y-158980332D01*
X112478409Y-161361285D02*
X112478409Y-161694618D01*
X113002219Y-161694618D02*
X112002219Y-161694618D01*
X112002219Y-161694618D02*
X112002219Y-161218428D01*
X113097457Y-161075571D02*
X113097457Y-160313666D01*
X112906980Y-159504142D02*
X112954600Y-159551761D01*
X112954600Y-159551761D02*
X113002219Y-159694618D01*
X113002219Y-159694618D02*
X113002219Y-159789856D01*
X113002219Y-159789856D02*
X112954600Y-159932713D01*
X112954600Y-159932713D02*
X112859361Y-160027951D01*
X112859361Y-160027951D02*
X112764123Y-160075570D01*
X112764123Y-160075570D02*
X112573647Y-160123189D01*
X112573647Y-160123189D02*
X112430790Y-160123189D01*
X112430790Y-160123189D02*
X112240314Y-160075570D01*
X112240314Y-160075570D02*
X112145076Y-160027951D01*
X112145076Y-160027951D02*
X112049838Y-159932713D01*
X112049838Y-159932713D02*
X112002219Y-159789856D01*
X112002219Y-159789856D02*
X112002219Y-159694618D01*
X112002219Y-159694618D02*
X112049838Y-159551761D01*
X112049838Y-159551761D02*
X112097457Y-159504142D01*
X113002219Y-158551761D02*
X113002219Y-159123189D01*
X113002219Y-158837475D02*
X112002219Y-158837475D01*
X112002219Y-158837475D02*
X112145076Y-158932713D01*
X112145076Y-158932713D02*
X112240314Y-159027951D01*
X112240314Y-159027951D02*
X112287933Y-159123189D01*
X39728971Y-116790000D02*
X39871828Y-116837619D01*
X39871828Y-116837619D02*
X40109923Y-116837619D01*
X40109923Y-116837619D02*
X40205161Y-116790000D01*
X40205161Y-116790000D02*
X40252780Y-116742380D01*
X40252780Y-116742380D02*
X40300399Y-116647142D01*
X40300399Y-116647142D02*
X40300399Y-116551904D01*
X40300399Y-116551904D02*
X40252780Y-116456666D01*
X40252780Y-116456666D02*
X40205161Y-116409047D01*
X40205161Y-116409047D02*
X40109923Y-116361428D01*
X40109923Y-116361428D02*
X39919447Y-116313809D01*
X39919447Y-116313809D02*
X39824209Y-116266190D01*
X39824209Y-116266190D02*
X39776590Y-116218571D01*
X39776590Y-116218571D02*
X39728971Y-116123333D01*
X39728971Y-116123333D02*
X39728971Y-116028095D01*
X39728971Y-116028095D02*
X39776590Y-115932857D01*
X39776590Y-115932857D02*
X39824209Y-115885238D01*
X39824209Y-115885238D02*
X39919447Y-115837619D01*
X39919447Y-115837619D02*
X40157542Y-115837619D01*
X40157542Y-115837619D02*
X40300399Y-115885238D01*
X40490876Y-116932857D02*
X41252780Y-116932857D01*
X41443257Y-116551904D02*
X41919447Y-116551904D01*
X41348019Y-116837619D02*
X41681352Y-115837619D01*
X41681352Y-115837619D02*
X42014685Y-116837619D01*
X42871828Y-116837619D02*
X42300400Y-116837619D01*
X42586114Y-116837619D02*
X42586114Y-115837619D01*
X42586114Y-115837619D02*
X42490876Y-115980476D01*
X42490876Y-115980476D02*
X42395638Y-116075714D01*
X42395638Y-116075714D02*
X42300400Y-116123333D01*
X68370076Y-162961009D02*
X68036743Y-162961009D01*
X68036743Y-163484819D02*
X68036743Y-162484819D01*
X68036743Y-162484819D02*
X68512933Y-162484819D01*
X69417695Y-163484819D02*
X68846267Y-163484819D01*
X69131981Y-163484819D02*
X69131981Y-162484819D01*
X69131981Y-162484819D02*
X69036743Y-162627676D01*
X69036743Y-162627676D02*
X68941505Y-162722914D01*
X68941505Y-162722914D02*
X68846267Y-162770533D01*
X69798648Y-162580057D02*
X69846267Y-162532438D01*
X69846267Y-162532438D02*
X69941505Y-162484819D01*
X69941505Y-162484819D02*
X70179600Y-162484819D01*
X70179600Y-162484819D02*
X70274838Y-162532438D01*
X70274838Y-162532438D02*
X70322457Y-162580057D01*
X70322457Y-162580057D02*
X70370076Y-162675295D01*
X70370076Y-162675295D02*
X70370076Y-162770533D01*
X70370076Y-162770533D02*
X70322457Y-162913390D01*
X70322457Y-162913390D02*
X69751029Y-163484819D01*
X69751029Y-163484819D02*
X70370076Y-163484819D01*
X45035000Y-161561256D02*
X45082619Y-161418399D01*
X45082619Y-161418399D02*
X45082619Y-161180304D01*
X45082619Y-161180304D02*
X45035000Y-161085066D01*
X45035000Y-161085066D02*
X44987380Y-161037447D01*
X44987380Y-161037447D02*
X44892142Y-160989828D01*
X44892142Y-160989828D02*
X44796904Y-160989828D01*
X44796904Y-160989828D02*
X44701666Y-161037447D01*
X44701666Y-161037447D02*
X44654047Y-161085066D01*
X44654047Y-161085066D02*
X44606428Y-161180304D01*
X44606428Y-161180304D02*
X44558809Y-161370780D01*
X44558809Y-161370780D02*
X44511190Y-161466018D01*
X44511190Y-161466018D02*
X44463571Y-161513637D01*
X44463571Y-161513637D02*
X44368333Y-161561256D01*
X44368333Y-161561256D02*
X44273095Y-161561256D01*
X44273095Y-161561256D02*
X44177857Y-161513637D01*
X44177857Y-161513637D02*
X44130238Y-161466018D01*
X44130238Y-161466018D02*
X44082619Y-161370780D01*
X44082619Y-161370780D02*
X44082619Y-161132685D01*
X44082619Y-161132685D02*
X44130238Y-160989828D01*
X45177857Y-160799352D02*
X45177857Y-160037447D01*
X45082619Y-159799351D02*
X44082619Y-159799351D01*
X44082619Y-159799351D02*
X44082619Y-159561256D01*
X44082619Y-159561256D02*
X44130238Y-159418399D01*
X44130238Y-159418399D02*
X44225476Y-159323161D01*
X44225476Y-159323161D02*
X44320714Y-159275542D01*
X44320714Y-159275542D02*
X44511190Y-159227923D01*
X44511190Y-159227923D02*
X44654047Y-159227923D01*
X44654047Y-159227923D02*
X44844523Y-159275542D01*
X44844523Y-159275542D02*
X44939761Y-159323161D01*
X44939761Y-159323161D02*
X45035000Y-159418399D01*
X45035000Y-159418399D02*
X45082619Y-159561256D01*
X45082619Y-159561256D02*
X45082619Y-159799351D01*
X45082619Y-158275542D02*
X45082619Y-158846970D01*
X45082619Y-158561256D02*
X44082619Y-158561256D01*
X44082619Y-158561256D02*
X44225476Y-158656494D01*
X44225476Y-158656494D02*
X44320714Y-158751732D01*
X44320714Y-158751732D02*
X44368333Y-158846970D01*
X99105209Y-123919733D02*
X99105209Y-124253066D01*
X99629019Y-124253066D02*
X98629019Y-124253066D01*
X98629019Y-124253066D02*
X98629019Y-123776876D01*
X99057590Y-123253066D02*
X99009971Y-123348304D01*
X99009971Y-123348304D02*
X98962352Y-123395923D01*
X98962352Y-123395923D02*
X98867114Y-123443542D01*
X98867114Y-123443542D02*
X98819495Y-123443542D01*
X98819495Y-123443542D02*
X98724257Y-123395923D01*
X98724257Y-123395923D02*
X98676638Y-123348304D01*
X98676638Y-123348304D02*
X98629019Y-123253066D01*
X98629019Y-123253066D02*
X98629019Y-123062590D01*
X98629019Y-123062590D02*
X98676638Y-122967352D01*
X98676638Y-122967352D02*
X98724257Y-122919733D01*
X98724257Y-122919733D02*
X98819495Y-122872114D01*
X98819495Y-122872114D02*
X98867114Y-122872114D01*
X98867114Y-122872114D02*
X98962352Y-122919733D01*
X98962352Y-122919733D02*
X99009971Y-122967352D01*
X99009971Y-122967352D02*
X99057590Y-123062590D01*
X99057590Y-123062590D02*
X99057590Y-123253066D01*
X99057590Y-123253066D02*
X99105209Y-123348304D01*
X99105209Y-123348304D02*
X99152828Y-123395923D01*
X99152828Y-123395923D02*
X99248066Y-123443542D01*
X99248066Y-123443542D02*
X99438542Y-123443542D01*
X99438542Y-123443542D02*
X99533780Y-123395923D01*
X99533780Y-123395923D02*
X99581400Y-123348304D01*
X99581400Y-123348304D02*
X99629019Y-123253066D01*
X99629019Y-123253066D02*
X99629019Y-123062590D01*
X99629019Y-123062590D02*
X99581400Y-122967352D01*
X99581400Y-122967352D02*
X99533780Y-122919733D01*
X99533780Y-122919733D02*
X99438542Y-122872114D01*
X99438542Y-122872114D02*
X99248066Y-122872114D01*
X99248066Y-122872114D02*
X99152828Y-122919733D01*
X99152828Y-122919733D02*
X99105209Y-122967352D01*
X99105209Y-122967352D02*
X99057590Y-123062590D01*
X71774766Y-140570419D02*
X71774766Y-141284704D01*
X71774766Y-141284704D02*
X71727147Y-141427561D01*
X71727147Y-141427561D02*
X71631909Y-141522800D01*
X71631909Y-141522800D02*
X71489052Y-141570419D01*
X71489052Y-141570419D02*
X71393814Y-141570419D01*
X72679528Y-140570419D02*
X72489052Y-140570419D01*
X72489052Y-140570419D02*
X72393814Y-140618038D01*
X72393814Y-140618038D02*
X72346195Y-140665657D01*
X72346195Y-140665657D02*
X72250957Y-140808514D01*
X72250957Y-140808514D02*
X72203338Y-140998990D01*
X72203338Y-140998990D02*
X72203338Y-141379942D01*
X72203338Y-141379942D02*
X72250957Y-141475180D01*
X72250957Y-141475180D02*
X72298576Y-141522800D01*
X72298576Y-141522800D02*
X72393814Y-141570419D01*
X72393814Y-141570419D02*
X72584290Y-141570419D01*
X72584290Y-141570419D02*
X72679528Y-141522800D01*
X72679528Y-141522800D02*
X72727147Y-141475180D01*
X72727147Y-141475180D02*
X72774766Y-141379942D01*
X72774766Y-141379942D02*
X72774766Y-141141847D01*
X72774766Y-141141847D02*
X72727147Y-141046609D01*
X72727147Y-141046609D02*
X72679528Y-140998990D01*
X72679528Y-140998990D02*
X72584290Y-140951371D01*
X72584290Y-140951371D02*
X72393814Y-140951371D01*
X72393814Y-140951371D02*
X72298576Y-140998990D01*
X72298576Y-140998990D02*
X72250957Y-141046609D01*
X72250957Y-141046609D02*
X72203338Y-141141847D01*
D13*
X95377095Y-152975019D02*
X95377095Y-153784542D01*
X95377095Y-153784542D02*
X95424714Y-153879780D01*
X95424714Y-153879780D02*
X95472333Y-153927400D01*
X95472333Y-153927400D02*
X95567571Y-153975019D01*
X95567571Y-153975019D02*
X95758047Y-153975019D01*
X95758047Y-153975019D02*
X95853285Y-153927400D01*
X95853285Y-153927400D02*
X95900904Y-153879780D01*
X95900904Y-153879780D02*
X95948523Y-153784542D01*
X95948523Y-153784542D02*
X95948523Y-152975019D01*
X96900904Y-152975019D02*
X96424714Y-152975019D01*
X96424714Y-152975019D02*
X96377095Y-153451209D01*
X96377095Y-153451209D02*
X96424714Y-153403590D01*
X96424714Y-153403590D02*
X96519952Y-153355971D01*
X96519952Y-153355971D02*
X96758047Y-153355971D01*
X96758047Y-153355971D02*
X96853285Y-153403590D01*
X96853285Y-153403590D02*
X96900904Y-153451209D01*
X96900904Y-153451209D02*
X96948523Y-153546447D01*
X96948523Y-153546447D02*
X96948523Y-153784542D01*
X96948523Y-153784542D02*
X96900904Y-153879780D01*
X96900904Y-153879780D02*
X96853285Y-153927400D01*
X96853285Y-153927400D02*
X96758047Y-153975019D01*
X96758047Y-153975019D02*
X96519952Y-153975019D01*
X96519952Y-153975019D02*
X96424714Y-153927400D01*
X96424714Y-153927400D02*
X96377095Y-153879780D01*
D11*
X67103666Y-143650619D02*
X67103666Y-144364904D01*
X67103666Y-144364904D02*
X67056047Y-144507761D01*
X67056047Y-144507761D02*
X66960809Y-144603000D01*
X66960809Y-144603000D02*
X66817952Y-144650619D01*
X66817952Y-144650619D02*
X66722714Y-144650619D01*
X67722714Y-144079190D02*
X67627476Y-144031571D01*
X67627476Y-144031571D02*
X67579857Y-143983952D01*
X67579857Y-143983952D02*
X67532238Y-143888714D01*
X67532238Y-143888714D02*
X67532238Y-143841095D01*
X67532238Y-143841095D02*
X67579857Y-143745857D01*
X67579857Y-143745857D02*
X67627476Y-143698238D01*
X67627476Y-143698238D02*
X67722714Y-143650619D01*
X67722714Y-143650619D02*
X67913190Y-143650619D01*
X67913190Y-143650619D02*
X68008428Y-143698238D01*
X68008428Y-143698238D02*
X68056047Y-143745857D01*
X68056047Y-143745857D02*
X68103666Y-143841095D01*
X68103666Y-143841095D02*
X68103666Y-143888714D01*
X68103666Y-143888714D02*
X68056047Y-143983952D01*
X68056047Y-143983952D02*
X68008428Y-144031571D01*
X68008428Y-144031571D02*
X67913190Y-144079190D01*
X67913190Y-144079190D02*
X67722714Y-144079190D01*
X67722714Y-144079190D02*
X67627476Y-144126809D01*
X67627476Y-144126809D02*
X67579857Y-144174428D01*
X67579857Y-144174428D02*
X67532238Y-144269666D01*
X67532238Y-144269666D02*
X67532238Y-144460142D01*
X67532238Y-144460142D02*
X67579857Y-144555380D01*
X67579857Y-144555380D02*
X67627476Y-144603000D01*
X67627476Y-144603000D02*
X67722714Y-144650619D01*
X67722714Y-144650619D02*
X67913190Y-144650619D01*
X67913190Y-144650619D02*
X68008428Y-144603000D01*
X68008428Y-144603000D02*
X68056047Y-144555380D01*
X68056047Y-144555380D02*
X68103666Y-144460142D01*
X68103666Y-144460142D02*
X68103666Y-144269666D01*
X68103666Y-144269666D02*
X68056047Y-144174428D01*
X68056047Y-144174428D02*
X68008428Y-144126809D01*
X68008428Y-144126809D02*
X67913190Y-144079190D01*
X42482076Y-155518609D02*
X42148743Y-155518609D01*
X42148743Y-156042419D02*
X42148743Y-155042419D01*
X42148743Y-155042419D02*
X42624933Y-155042419D01*
X43529695Y-156042419D02*
X42958267Y-156042419D01*
X43243981Y-156042419D02*
X43243981Y-155042419D01*
X43243981Y-155042419D02*
X43148743Y-155185276D01*
X43148743Y-155185276D02*
X43053505Y-155280514D01*
X43053505Y-155280514D02*
X42958267Y-155328133D01*
X44148743Y-155042419D02*
X44243981Y-155042419D01*
X44243981Y-155042419D02*
X44339219Y-155090038D01*
X44339219Y-155090038D02*
X44386838Y-155137657D01*
X44386838Y-155137657D02*
X44434457Y-155232895D01*
X44434457Y-155232895D02*
X44482076Y-155423371D01*
X44482076Y-155423371D02*
X44482076Y-155661466D01*
X44482076Y-155661466D02*
X44434457Y-155851942D01*
X44434457Y-155851942D02*
X44386838Y-155947180D01*
X44386838Y-155947180D02*
X44339219Y-155994800D01*
X44339219Y-155994800D02*
X44243981Y-156042419D01*
X44243981Y-156042419D02*
X44148743Y-156042419D01*
X44148743Y-156042419D02*
X44053505Y-155994800D01*
X44053505Y-155994800D02*
X44005886Y-155947180D01*
X44005886Y-155947180D02*
X43958267Y-155851942D01*
X43958267Y-155851942D02*
X43910648Y-155661466D01*
X43910648Y-155661466D02*
X43910648Y-155423371D01*
X43910648Y-155423371D02*
X43958267Y-155232895D01*
X43958267Y-155232895D02*
X44005886Y-155137657D01*
X44005886Y-155137657D02*
X44053505Y-155090038D01*
X44053505Y-155090038D02*
X44148743Y-155042419D01*
X55267266Y-120708009D02*
X54933933Y-120708009D01*
X54933933Y-121231819D02*
X54933933Y-120231819D01*
X54933933Y-120231819D02*
X55410123Y-120231819D01*
X55695838Y-120231819D02*
X56362504Y-120231819D01*
X56362504Y-120231819D02*
X55933933Y-121231819D01*
X106014009Y-135171933D02*
X106014009Y-135505266D01*
X106537819Y-135505266D02*
X105537819Y-135505266D01*
X105537819Y-135505266D02*
X105537819Y-135029076D01*
X105537819Y-134171933D02*
X105537819Y-134648123D01*
X105537819Y-134648123D02*
X106014009Y-134695742D01*
X106014009Y-134695742D02*
X105966390Y-134648123D01*
X105966390Y-134648123D02*
X105918771Y-134552885D01*
X105918771Y-134552885D02*
X105918771Y-134314790D01*
X105918771Y-134314790D02*
X105966390Y-134219552D01*
X105966390Y-134219552D02*
X106014009Y-134171933D01*
X106014009Y-134171933D02*
X106109247Y-134124314D01*
X106109247Y-134124314D02*
X106347342Y-134124314D01*
X106347342Y-134124314D02*
X106442580Y-134171933D01*
X106442580Y-134171933D02*
X106490200Y-134219552D01*
X106490200Y-134219552D02*
X106537819Y-134314790D01*
X106537819Y-134314790D02*
X106537819Y-134552885D01*
X106537819Y-134552885D02*
X106490200Y-134648123D01*
X106490200Y-134648123D02*
X106442580Y-134695742D01*
X60144066Y-116136009D02*
X59810733Y-116136009D01*
X59810733Y-116659819D02*
X59810733Y-115659819D01*
X59810733Y-115659819D02*
X60286923Y-115659819D01*
X60620257Y-115755057D02*
X60667876Y-115707438D01*
X60667876Y-115707438D02*
X60763114Y-115659819D01*
X60763114Y-115659819D02*
X61001209Y-115659819D01*
X61001209Y-115659819D02*
X61096447Y-115707438D01*
X61096447Y-115707438D02*
X61144066Y-115755057D01*
X61144066Y-115755057D02*
X61191685Y-115850295D01*
X61191685Y-115850295D02*
X61191685Y-115945533D01*
X61191685Y-115945533D02*
X61144066Y-116088390D01*
X61144066Y-116088390D02*
X60572638Y-116659819D01*
X60572638Y-116659819D02*
X61191685Y-116659819D01*
X44523066Y-120568409D02*
X44189733Y-120568409D01*
X44189733Y-121092219D02*
X44189733Y-120092219D01*
X44189733Y-120092219D02*
X44665923Y-120092219D01*
X45570685Y-121092219D02*
X44999257Y-121092219D01*
X45284971Y-121092219D02*
X45284971Y-120092219D01*
X45284971Y-120092219D02*
X45189733Y-120235076D01*
X45189733Y-120235076D02*
X45094495Y-120330314D01*
X45094495Y-120330314D02*
X44999257Y-120377933D01*
X78716466Y-144204419D02*
X78716466Y-144918704D01*
X78716466Y-144918704D02*
X78668847Y-145061561D01*
X78668847Y-145061561D02*
X78573609Y-145156800D01*
X78573609Y-145156800D02*
X78430752Y-145204419D01*
X78430752Y-145204419D02*
X78335514Y-145204419D01*
X79097419Y-144204419D02*
X79764085Y-144204419D01*
X79764085Y-144204419D02*
X79335514Y-145204419D01*
X93248314Y-109125609D02*
X92914981Y-109125609D01*
X92914981Y-109649419D02*
X92914981Y-108649419D01*
X92914981Y-108649419D02*
X93391171Y-108649419D01*
X93534029Y-109744657D02*
X94295933Y-109744657D01*
X94867362Y-109125609D02*
X95010219Y-109173228D01*
X95010219Y-109173228D02*
X95057838Y-109220847D01*
X95057838Y-109220847D02*
X95105457Y-109316085D01*
X95105457Y-109316085D02*
X95105457Y-109458942D01*
X95105457Y-109458942D02*
X95057838Y-109554180D01*
X95057838Y-109554180D02*
X95010219Y-109601800D01*
X95010219Y-109601800D02*
X94914981Y-109649419D01*
X94914981Y-109649419D02*
X94534029Y-109649419D01*
X94534029Y-109649419D02*
X94534029Y-108649419D01*
X94534029Y-108649419D02*
X94867362Y-108649419D01*
X94867362Y-108649419D02*
X94962600Y-108697038D01*
X94962600Y-108697038D02*
X95010219Y-108744657D01*
X95010219Y-108744657D02*
X95057838Y-108839895D01*
X95057838Y-108839895D02*
X95057838Y-108935133D01*
X95057838Y-108935133D02*
X95010219Y-109030371D01*
X95010219Y-109030371D02*
X94962600Y-109077990D01*
X94962600Y-109077990D02*
X94867362Y-109125609D01*
X94867362Y-109125609D02*
X94534029Y-109125609D01*
X96057838Y-109649419D02*
X95486410Y-109649419D01*
X95772124Y-109649419D02*
X95772124Y-108649419D01*
X95772124Y-108649419D02*
X95676886Y-108792276D01*
X95676886Y-108792276D02*
X95581648Y-108887514D01*
X95581648Y-108887514D02*
X95486410Y-108935133D01*
D13*
X79883095Y-119802619D02*
X79883095Y-120612142D01*
X79883095Y-120612142D02*
X79930714Y-120707380D01*
X79930714Y-120707380D02*
X79978333Y-120755000D01*
X79978333Y-120755000D02*
X80073571Y-120802619D01*
X80073571Y-120802619D02*
X80264047Y-120802619D01*
X80264047Y-120802619D02*
X80359285Y-120755000D01*
X80359285Y-120755000D02*
X80406904Y-120707380D01*
X80406904Y-120707380D02*
X80454523Y-120612142D01*
X80454523Y-120612142D02*
X80454523Y-119802619D01*
X81359285Y-120135952D02*
X81359285Y-120802619D01*
X81121190Y-119755000D02*
X80883095Y-120469285D01*
X80883095Y-120469285D02*
X81502142Y-120469285D01*
D11*
X125680000Y-161967656D02*
X125727619Y-161824799D01*
X125727619Y-161824799D02*
X125727619Y-161586704D01*
X125727619Y-161586704D02*
X125680000Y-161491466D01*
X125680000Y-161491466D02*
X125632380Y-161443847D01*
X125632380Y-161443847D02*
X125537142Y-161396228D01*
X125537142Y-161396228D02*
X125441904Y-161396228D01*
X125441904Y-161396228D02*
X125346666Y-161443847D01*
X125346666Y-161443847D02*
X125299047Y-161491466D01*
X125299047Y-161491466D02*
X125251428Y-161586704D01*
X125251428Y-161586704D02*
X125203809Y-161777180D01*
X125203809Y-161777180D02*
X125156190Y-161872418D01*
X125156190Y-161872418D02*
X125108571Y-161920037D01*
X125108571Y-161920037D02*
X125013333Y-161967656D01*
X125013333Y-161967656D02*
X124918095Y-161967656D01*
X124918095Y-161967656D02*
X124822857Y-161920037D01*
X124822857Y-161920037D02*
X124775238Y-161872418D01*
X124775238Y-161872418D02*
X124727619Y-161777180D01*
X124727619Y-161777180D02*
X124727619Y-161539085D01*
X124727619Y-161539085D02*
X124775238Y-161396228D01*
X125822857Y-161205752D02*
X125822857Y-160443847D01*
X125632380Y-159634323D02*
X125680000Y-159681942D01*
X125680000Y-159681942D02*
X125727619Y-159824799D01*
X125727619Y-159824799D02*
X125727619Y-159920037D01*
X125727619Y-159920037D02*
X125680000Y-160062894D01*
X125680000Y-160062894D02*
X125584761Y-160158132D01*
X125584761Y-160158132D02*
X125489523Y-160205751D01*
X125489523Y-160205751D02*
X125299047Y-160253370D01*
X125299047Y-160253370D02*
X125156190Y-160253370D01*
X125156190Y-160253370D02*
X124965714Y-160205751D01*
X124965714Y-160205751D02*
X124870476Y-160158132D01*
X124870476Y-160158132D02*
X124775238Y-160062894D01*
X124775238Y-160062894D02*
X124727619Y-159920037D01*
X124727619Y-159920037D02*
X124727619Y-159824799D01*
X124727619Y-159824799D02*
X124775238Y-159681942D01*
X124775238Y-159681942D02*
X124822857Y-159634323D01*
X125727619Y-158681942D02*
X125727619Y-159253370D01*
X125727619Y-158967656D02*
X124727619Y-158967656D01*
X124727619Y-158967656D02*
X124870476Y-159062894D01*
X124870476Y-159062894D02*
X124965714Y-159158132D01*
X124965714Y-159158132D02*
X125013333Y-159253370D01*
D14*
%TO.C,F3*%
X55545200Y-113314800D02*
X55545200Y-109214800D01*
X65745200Y-109214800D02*
X55545200Y-109214800D01*
X65745200Y-113314800D02*
X55545200Y-113314800D01*
X65745200Y-113314800D02*
X65745200Y-109214800D01*
%TO.C,U6*%
X37755400Y-123094400D02*
X64657400Y-123094400D01*
X37755400Y-145754400D02*
X37755400Y-123094400D01*
X37755400Y-148694400D02*
X37755400Y-145754400D01*
X37755400Y-148694400D02*
X64657400Y-148694400D01*
X64657400Y-148694400D02*
X64657400Y-123094400D01*
D13*
X39057400Y-139894400D02*
X46257400Y-139894400D01*
X46257400Y-130994400D01*
X39057400Y-130994400D01*
X39057400Y-139894400D01*
X54557400Y-140894400D02*
X59357400Y-140894400D01*
X59357400Y-136594400D01*
X54557400Y-136594400D01*
X54557400Y-140894400D01*
X56957401Y-127794400D02*
G75*
G02*
X51742039Y-127794400I-2607681J0D01*
G01*
X51742039Y-127794400D02*
G75*
G02*
X56957401Y-127794400I2607681J0D01*
G01*
X64057401Y-131994400D02*
G75*
G02*
X58842039Y-131994400I-2607681J0D01*
G01*
X58842039Y-131994400D02*
G75*
G02*
X64057401Y-131994400I2607681J0D01*
G01*
D14*
%TO.C,F11*%
X64079600Y-160457200D02*
X64079600Y-156357200D01*
X74279600Y-156357200D02*
X64079600Y-156357200D01*
X74279600Y-160457200D02*
X64079600Y-160457200D01*
X74279600Y-160457200D02*
X74279600Y-156357200D01*
%TO.C,J21*%
X116611400Y-109093000D02*
X116611400Y-107823000D01*
X117881400Y-109093000D02*
X116611400Y-109093000D01*
%TO.C,F9*%
X92298200Y-118410200D02*
X96398200Y-118410200D01*
X92298200Y-128610200D02*
X92298200Y-118410200D01*
X92298200Y-128610200D02*
X96398200Y-128610200D01*
X96398200Y-128610200D02*
X96398200Y-118410200D01*
%TO.C,M_D1*%
X51552800Y-158588400D02*
X52882800Y-158588400D01*
X51552800Y-159918400D02*
X51552800Y-158588400D01*
X51552800Y-161188400D02*
X51552800Y-166328400D01*
X51552800Y-161188400D02*
X54212800Y-161188400D01*
X51552800Y-166328400D02*
X54212800Y-166328400D01*
X54212800Y-161188400D02*
X54212800Y-166328400D01*
%TO.C,F4*%
X38293200Y-149118000D02*
X38293200Y-153218000D01*
X38293200Y-149118000D02*
X48493200Y-149118000D01*
X38293200Y-153218000D02*
X48493200Y-153218000D01*
X48493200Y-149118000D02*
X48493200Y-153218000D01*
%TO.C,S_B1*%
X104080000Y-115062000D02*
X104080000Y-109922000D01*
X106740000Y-109922000D02*
X104080000Y-109922000D01*
X106740000Y-115062000D02*
X104080000Y-115062000D01*
X106740000Y-115062000D02*
X106740000Y-109922000D01*
X106740000Y-116332000D02*
X106740000Y-117662000D01*
X106740000Y-117662000D02*
X105410000Y-117662000D01*
%TO.C,U8*%
X109810078Y-114583174D02*
X109810078Y-111966974D01*
X109810078Y-114583174D02*
X109810078Y-147679374D01*
X113671978Y-149448174D02*
X113676578Y-157178974D01*
X113679978Y-149448174D02*
X137352878Y-149448174D01*
X113684578Y-157183574D02*
X137352878Y-157183574D01*
X116210878Y-111978574D02*
X109810078Y-111966974D01*
X117540878Y-114578574D02*
X109810078Y-114583174D01*
X117540878Y-114578574D02*
X117557078Y-145088574D01*
X120020878Y-145088574D02*
X117557078Y-145088574D01*
X120020878Y-145088574D02*
X120020878Y-147679374D01*
X120020878Y-147679374D02*
X109810078Y-147679374D01*
X134692878Y-123498574D02*
X134692878Y-138798574D01*
X137352878Y-111978574D02*
X116210878Y-111978574D01*
X137352878Y-111978574D02*
X137352878Y-157183574D01*
X137352878Y-120898574D02*
X136022878Y-120898574D01*
X137352878Y-123498574D02*
X134692878Y-123498574D01*
X137352878Y-138798574D02*
X134692878Y-138798574D01*
D13*
X109576878Y-151116574D02*
X113476878Y-151116574D01*
X113476878Y-156216574D01*
X109576878Y-156216574D01*
X109576878Y-151116574D01*
X130112773Y-110905193D02*
X130112773Y-111714716D01*
X130112773Y-111714716D02*
X130160392Y-111809954D01*
X130160392Y-111809954D02*
X130208011Y-111857574D01*
X130208011Y-111857574D02*
X130303249Y-111905193D01*
X130303249Y-111905193D02*
X130493725Y-111905193D01*
X130493725Y-111905193D02*
X130588963Y-111857574D01*
X130588963Y-111857574D02*
X130636582Y-111809954D01*
X130636582Y-111809954D02*
X130684201Y-111714716D01*
X130684201Y-111714716D02*
X130684201Y-110905193D01*
X131112773Y-111857574D02*
X131255630Y-111905193D01*
X131255630Y-111905193D02*
X131493725Y-111905193D01*
X131493725Y-111905193D02*
X131588963Y-111857574D01*
X131588963Y-111857574D02*
X131636582Y-111809954D01*
X131636582Y-111809954D02*
X131684201Y-111714716D01*
X131684201Y-111714716D02*
X131684201Y-111619478D01*
X131684201Y-111619478D02*
X131636582Y-111524240D01*
X131636582Y-111524240D02*
X131588963Y-111476621D01*
X131588963Y-111476621D02*
X131493725Y-111429002D01*
X131493725Y-111429002D02*
X131303249Y-111381383D01*
X131303249Y-111381383D02*
X131208011Y-111333764D01*
X131208011Y-111333764D02*
X131160392Y-111286145D01*
X131160392Y-111286145D02*
X131112773Y-111190907D01*
X131112773Y-111190907D02*
X131112773Y-111095669D01*
X131112773Y-111095669D02*
X131160392Y-111000431D01*
X131160392Y-111000431D02*
X131208011Y-110952812D01*
X131208011Y-110952812D02*
X131303249Y-110905193D01*
X131303249Y-110905193D02*
X131541344Y-110905193D01*
X131541344Y-110905193D02*
X131684201Y-110952812D01*
X132446106Y-111381383D02*
X132588963Y-111429002D01*
X132588963Y-111429002D02*
X132636582Y-111476621D01*
X132636582Y-111476621D02*
X132684201Y-111571859D01*
X132684201Y-111571859D02*
X132684201Y-111714716D01*
X132684201Y-111714716D02*
X132636582Y-111809954D01*
X132636582Y-111809954D02*
X132588963Y-111857574D01*
X132588963Y-111857574D02*
X132493725Y-111905193D01*
X132493725Y-111905193D02*
X132112773Y-111905193D01*
X132112773Y-111905193D02*
X132112773Y-110905193D01*
X132112773Y-110905193D02*
X132446106Y-110905193D01*
X132446106Y-110905193D02*
X132541344Y-110952812D01*
X132541344Y-110952812D02*
X132588963Y-111000431D01*
X132588963Y-111000431D02*
X132636582Y-111095669D01*
X132636582Y-111095669D02*
X132636582Y-111190907D01*
X132636582Y-111190907D02*
X132588963Y-111286145D01*
X132588963Y-111286145D02*
X132541344Y-111333764D01*
X132541344Y-111333764D02*
X132446106Y-111381383D01*
X132446106Y-111381383D02*
X132112773Y-111381383D01*
X127221778Y-110112774D02*
X135527578Y-110112774D01*
X135527578Y-112906774D01*
X127221778Y-112906774D01*
X127221778Y-110112774D01*
D14*
%TO.C,M_A1*%
X45660000Y-112623600D02*
X45660000Y-107483600D01*
X48320000Y-107483600D02*
X45660000Y-107483600D01*
X48320000Y-112623600D02*
X45660000Y-112623600D01*
X48320000Y-112623600D02*
X48320000Y-107483600D01*
X48320000Y-113893600D02*
X48320000Y-115223600D01*
X48320000Y-115223600D02*
X46990000Y-115223600D01*
%TO.C,F6*%
X99207000Y-129586200D02*
X103307000Y-129586200D01*
X99207000Y-139786200D02*
X99207000Y-129586200D01*
X99207000Y-139786200D02*
X103307000Y-139786200D01*
X103307000Y-139786200D02*
X103307000Y-129586200D01*
%TO.C,M_B1*%
X98644400Y-115011200D02*
X98644400Y-109871200D01*
X101304400Y-109871200D02*
X98644400Y-109871200D01*
X101304400Y-115011200D02*
X98644400Y-115011200D01*
X101304400Y-115011200D02*
X101304400Y-109871200D01*
X101304400Y-116281200D02*
X101304400Y-117611200D01*
X101304400Y-117611200D02*
X99974400Y-117611200D01*
%TO.C,F_D1*%
X58410800Y-158690000D02*
X59740800Y-158690000D01*
X58410800Y-160020000D02*
X58410800Y-158690000D01*
X58410800Y-161290000D02*
X58410800Y-166430000D01*
X58410800Y-161290000D02*
X61070800Y-161290000D01*
X58410800Y-166430000D02*
X61070800Y-166430000D01*
X61070800Y-161290000D02*
X61070800Y-166430000D01*
%TO.C,F_A1*%
X51095600Y-112623600D02*
X51095600Y-107483600D01*
X53755600Y-107483600D02*
X51095600Y-107483600D01*
X53755600Y-112623600D02*
X51095600Y-112623600D01*
X53755600Y-112623600D02*
X53755600Y-107483600D01*
X53755600Y-113893600D02*
X53755600Y-115223600D01*
X53755600Y-115223600D02*
X52425600Y-115223600D01*
%TO.C,M_C1*%
X119576404Y-158857165D02*
X120906404Y-158857165D01*
X119576404Y-160187165D02*
X119576404Y-158857165D01*
X119576404Y-161457165D02*
X119576404Y-166597165D01*
X119576404Y-161457165D02*
X122236404Y-161457165D01*
X119576404Y-166597165D02*
X122236404Y-166597165D01*
X122236404Y-161457165D02*
X122236404Y-166597165D01*
%TO.C,F_C1*%
X113376400Y-158690000D02*
X114706400Y-158690000D01*
X113376400Y-160020000D02*
X113376400Y-158690000D01*
X113376400Y-161290000D02*
X113376400Y-166430000D01*
X113376400Y-161290000D02*
X116036400Y-161290000D01*
X113376400Y-166430000D02*
X116036400Y-166430000D01*
X116036400Y-161290000D02*
X116036400Y-166430000D01*
%TO.C,S_A1*%
X39970400Y-112623600D02*
X39970400Y-107483600D01*
X42630400Y-107483600D02*
X39970400Y-107483600D01*
X42630400Y-112623600D02*
X39970400Y-112623600D01*
X42630400Y-112623600D02*
X42630400Y-107483600D01*
X42630400Y-113893600D02*
X42630400Y-115223600D01*
X42630400Y-115223600D02*
X41300400Y-115223600D01*
%TO.C,11v1_1*%
X93716800Y-130267400D02*
X95046800Y-130267400D01*
X93716800Y-131597400D02*
X93716800Y-130267400D01*
X93716800Y-132867400D02*
X93716800Y-135467400D01*
X93716800Y-132867400D02*
X96376800Y-132867400D01*
X93716800Y-135467400D02*
X96376800Y-135467400D01*
X96376800Y-132867400D02*
X96376800Y-135467400D01*
%TO.C,F12*%
X64079600Y-165080000D02*
X64079600Y-160980000D01*
X74279600Y-160980000D02*
X64079600Y-160980000D01*
X74279600Y-165080000D02*
X64079600Y-165080000D01*
X74279600Y-165080000D02*
X74279600Y-160980000D01*
%TO.C,JUMPER1*%
X102652600Y-128888800D02*
X102652600Y-127558800D01*
X103982600Y-128888800D02*
X102652600Y-128888800D01*
X105252600Y-126228800D02*
X107852600Y-126228800D01*
X105252600Y-128888800D02*
X105252600Y-126228800D01*
X105252600Y-128888800D02*
X107852600Y-128888800D01*
X107852600Y-128888800D02*
X107852600Y-126228800D01*
%TO.C,S_D1*%
X45456800Y-158690000D02*
X46786800Y-158690000D01*
X45456800Y-160020000D02*
X45456800Y-158690000D01*
X45456800Y-161290000D02*
X45456800Y-166430000D01*
X45456800Y-161290000D02*
X48116800Y-161290000D01*
X45456800Y-166430000D02*
X48116800Y-166430000D01*
X48116800Y-161290000D02*
X48116800Y-166430000D01*
%TO.C,F8*%
X97098800Y-118410200D02*
X101198800Y-118410200D01*
X97098800Y-128610200D02*
X97098800Y-118410200D01*
X97098800Y-128610200D02*
X101198800Y-128610200D01*
X101198800Y-128610200D02*
X101198800Y-118410200D01*
%TO.C,J6*%
X69434400Y-139760000D02*
X69434400Y-134560000D01*
X72034400Y-137160000D02*
X72034400Y-139760000D01*
X72034400Y-139760000D02*
X69434400Y-139760000D01*
X74634400Y-134560000D02*
X69434400Y-134560000D01*
X74634400Y-137160000D02*
X72034400Y-137160000D01*
X74634400Y-137160000D02*
X74634400Y-134560000D01*
X74634400Y-138430000D02*
X74634400Y-139760000D01*
X74634400Y-139760000D02*
X73304400Y-139760000D01*
%TO.C,U5*%
X82256200Y-140266200D02*
X82256200Y-165866200D01*
X109158200Y-140266200D02*
X82256200Y-140266200D01*
X109158200Y-140266200D02*
X109158200Y-143206200D01*
X109158200Y-143206200D02*
X109158200Y-165866200D01*
X109158200Y-165866200D02*
X82256200Y-165866200D01*
D13*
X92356200Y-148066200D02*
X87556200Y-148066200D01*
X87556200Y-152366200D01*
X92356200Y-152366200D01*
X92356200Y-148066200D01*
X107856200Y-149066200D02*
X100656200Y-149066200D01*
X100656200Y-157966200D01*
X107856200Y-157966200D01*
X107856200Y-149066200D01*
X88071561Y-156966200D02*
G75*
G02*
X82856199Y-156966200I-2607681J0D01*
G01*
X82856199Y-156966200D02*
G75*
G02*
X88071561Y-156966200I2607681J0D01*
G01*
X95171561Y-161166200D02*
G75*
G02*
X89956199Y-161166200I-2607681J0D01*
G01*
X89956199Y-161166200D02*
G75*
G02*
X95171561Y-161166200I2607681J0D01*
G01*
D14*
%TO.C,J8*%
X65014800Y-145253400D02*
X65014800Y-150453400D01*
X67614800Y-145253400D02*
X65014800Y-145253400D01*
X67614800Y-145253400D02*
X67614800Y-147853400D01*
X67614800Y-147853400D02*
X70214800Y-147853400D01*
X68884800Y-145253400D02*
X70214800Y-145253400D01*
X70214800Y-145253400D02*
X70214800Y-146583400D01*
X70214800Y-147853400D02*
X70214800Y-150453400D01*
X70214800Y-150453400D02*
X65014800Y-150453400D01*
%TO.C,F10*%
X38191600Y-153537600D02*
X38191600Y-157637600D01*
X38191600Y-153537600D02*
X48391600Y-153537600D01*
X38191600Y-157637600D02*
X48391600Y-157637600D01*
X48391600Y-153537600D02*
X48391600Y-157637600D01*
%TO.C,F7*%
X50434400Y-118688800D02*
X50434400Y-122788800D01*
X50434400Y-118688800D02*
X60634400Y-118688800D01*
X50434400Y-122788800D02*
X60634400Y-122788800D01*
X60634400Y-118688800D02*
X60634400Y-122788800D01*
%TO.C,F5*%
X104033000Y-129611600D02*
X108133000Y-129611600D01*
X104033000Y-139811600D02*
X104033000Y-129611600D01*
X104033000Y-139811600D02*
X108133000Y-139811600D01*
X108133000Y-139811600D02*
X108133000Y-129611600D01*
%TO.C,F2*%
X55494400Y-118344000D02*
X55494400Y-114244000D01*
X65694400Y-114244000D02*
X55494400Y-114244000D01*
X65694400Y-118344000D02*
X55494400Y-118344000D01*
X65694400Y-118344000D02*
X65694400Y-114244000D01*
%TO.C,F1*%
X39746400Y-122814400D02*
X39746400Y-118714400D01*
X49946400Y-118714400D02*
X39746400Y-118714400D01*
X49946400Y-122814400D02*
X39746400Y-122814400D01*
X49946400Y-122814400D02*
X49946400Y-118714400D01*
%TO.C,J7*%
X76749600Y-145888400D02*
X81949600Y-145888400D01*
X76749600Y-148488400D02*
X76749600Y-145888400D01*
X76749600Y-151088400D02*
X76749600Y-149758400D01*
X78079600Y-151088400D02*
X76749600Y-151088400D01*
X79349600Y-148488400D02*
X76749600Y-148488400D01*
X79349600Y-151088400D02*
X79349600Y-148488400D01*
X79349600Y-151088400D02*
X81949600Y-151088400D01*
X81949600Y-151088400D02*
X81949600Y-145888400D01*
%TO.C,F_B1*%
X93158000Y-115062000D02*
X93158000Y-109922000D01*
X95818000Y-109922000D02*
X93158000Y-109922000D01*
X95818000Y-115062000D02*
X93158000Y-115062000D01*
X95818000Y-115062000D02*
X95818000Y-109922000D01*
X95818000Y-116332000D02*
X95818000Y-117662000D01*
X95818000Y-117662000D02*
X94488000Y-117662000D01*
%TO.C,U4*%
X66047400Y-106945000D02*
X66047400Y-133847000D01*
X66047400Y-106945000D02*
X68987400Y-106945000D01*
X66047400Y-133847000D02*
X91647400Y-133847000D01*
X68987400Y-106945000D02*
X91647400Y-106945000D01*
X91647400Y-106945000D02*
X91647400Y-133847000D01*
D13*
X73847400Y-123747000D02*
X78147400Y-123747000D01*
X78147400Y-128547000D01*
X73847400Y-128547000D01*
X73847400Y-123747000D01*
X74847400Y-108247000D02*
X83747400Y-108247000D01*
X83747400Y-115447000D01*
X74847400Y-115447000D01*
X74847400Y-108247000D01*
X85355081Y-130639320D02*
G75*
G02*
X80139719Y-130639320I-2607681J0D01*
G01*
X80139719Y-130639320D02*
G75*
G02*
X85355081Y-130639320I2607681J0D01*
G01*
X89555081Y-123539320D02*
G75*
G02*
X84339719Y-123539320I-2607681J0D01*
G01*
X84339719Y-123539320D02*
G75*
G02*
X89555081Y-123539320I2607681J0D01*
G01*
D14*
%TO.C,S_C1*%
X125924000Y-158740800D02*
X127254000Y-158740800D01*
X125924000Y-160070800D02*
X125924000Y-158740800D01*
X125924000Y-161340800D02*
X125924000Y-166480800D01*
X125924000Y-161340800D02*
X128584000Y-161340800D01*
X125924000Y-166480800D02*
X128584000Y-166480800D01*
X128584000Y-161340800D02*
X128584000Y-166480800D01*
%TD*%
M02*
