%TF.GenerationSoftware,KiCad,Pcbnew,8.0.2*%
%TF.CreationDate,2024-07-21T17:00:07+02:00*%
%TF.ProjectId,CzlapCzlapBOT,437a6c61-7043-47a6-9c61-70424f542e6b,rev?*%
%TF.SameCoordinates,Original*%
%TF.FileFunction,Soldermask,Top*%
%TF.FilePolarity,Negative*%
%FSLAX46Y46*%
G04 Gerber Fmt 4.6, Leading zero omitted, Abs format (unit mm)*
G04 Created by KiCad (PCBNEW 8.0.2) date 2024-07-21 17:00:07*
%MOMM*%
%LPD*%
G01*
G04 APERTURE LIST*
%ADD10C,1.270000*%
%ADD11C,3.000000*%
%ADD12C,2.100000*%
%ADD13O,1.700000X1.700000*%
%ADD14R,1.700000X1.700000*%
%ADD15C,3.100000*%
%ADD16C,4.700000*%
G04 APERTURE END LIST*
D10*
%TO.C,F3*%
X63195200Y-112064800D03*
X58095200Y-110464800D03*
%TD*%
D11*
%TO.C,REF\u002A\u002A*%
X128574800Y-124561600D03*
%TD*%
D12*
%TO.C,U6*%
X62057400Y-125494400D03*
D13*
X45085400Y-147024400D03*
D14*
X45085400Y-144484400D03*
D13*
X47625400Y-147024400D03*
X47625400Y-144484400D03*
X50165400Y-147024400D03*
X50165400Y-144484400D03*
X52705400Y-147024400D03*
X52705400Y-144484400D03*
X57787400Y-147024400D03*
%TD*%
D10*
%TO.C,F11*%
X71729600Y-159207200D03*
X66629600Y-157607200D03*
%TD*%
D15*
%TO.C,+1*%
X73710800Y-143459200D03*
D16*
X73710800Y-143459200D03*
%TD*%
D14*
%TO.C,J21*%
X117881400Y-107823000D03*
D13*
X120421400Y-107823000D03*
X122961400Y-107823000D03*
X125501400Y-107823000D03*
X128041400Y-107823000D03*
X130581400Y-107823000D03*
X133121400Y-107823000D03*
X135661400Y-107823000D03*
%TD*%
D10*
%TO.C,F9*%
X93548200Y-126060200D03*
X95148200Y-120960200D03*
%TD*%
D11*
%TO.C,REF\u002A\u002A*%
X134061200Y-163830000D03*
%TD*%
D14*
%TO.C,M_D1*%
X52882800Y-159918400D03*
D13*
X52882800Y-162458400D03*
X52882800Y-164998400D03*
%TD*%
D10*
%TO.C,F4*%
X40843200Y-150368000D03*
X45943200Y-151968000D03*
%TD*%
D14*
%TO.C,S_B1*%
X105410000Y-116332000D03*
D13*
X105410000Y-113792000D03*
X105410000Y-111252000D03*
%TD*%
D14*
%TO.C,U8*%
X136022878Y-122228574D03*
D13*
X136022878Y-124768574D03*
X136022878Y-127308574D03*
X136022878Y-129848574D03*
X136022878Y-132388574D03*
X136022878Y-134928574D03*
X136022878Y-137468574D03*
D14*
X116210878Y-113338574D03*
D13*
X116210878Y-115878574D03*
X116210878Y-118418574D03*
X116210878Y-120958574D03*
X116210878Y-123498574D03*
X116210878Y-126038574D03*
X116210878Y-131118574D03*
X116210878Y-133658574D03*
X116210878Y-136198574D03*
X116210878Y-138738574D03*
X116210878Y-141278574D03*
X116210878Y-143818574D03*
X118268278Y-150498774D03*
X120808278Y-150498774D03*
X123348278Y-150498774D03*
X125888278Y-150498774D03*
X128428278Y-150498774D03*
X130968278Y-150498774D03*
%TD*%
D14*
%TO.C,M_A1*%
X46990000Y-113893600D03*
D13*
X46990000Y-111353600D03*
X46990000Y-108813600D03*
%TD*%
D10*
%TO.C,F6*%
X100457000Y-137236200D03*
X102057000Y-132136200D03*
%TD*%
D14*
%TO.C,M_B1*%
X99974400Y-116281200D03*
D13*
X99974400Y-113741200D03*
X99974400Y-111201200D03*
%TD*%
D14*
%TO.C,F_D1*%
X59740800Y-160020000D03*
D13*
X59740800Y-162560000D03*
X59740800Y-165100000D03*
%TD*%
D14*
%TO.C,F_A1*%
X52425600Y-113893600D03*
D13*
X52425600Y-111353600D03*
X52425600Y-108813600D03*
%TD*%
D14*
%TO.C,M_C1*%
X120906404Y-160187165D03*
D13*
X120906404Y-162727165D03*
X120906404Y-165267165D03*
%TD*%
D14*
%TO.C,F_C1*%
X114706400Y-160020000D03*
D13*
X114706400Y-162560000D03*
X114706400Y-165100000D03*
%TD*%
D14*
%TO.C,S_A1*%
X41300400Y-113893600D03*
D13*
X41300400Y-111353600D03*
X41300400Y-108813600D03*
%TD*%
D14*
%TO.C,11v1_1*%
X95046800Y-131597400D03*
D13*
X95046800Y-134137400D03*
%TD*%
D11*
%TO.C,REF\u002A\u002A*%
X40843200Y-163474400D03*
%TD*%
D10*
%TO.C,F12*%
X71729600Y-163830000D03*
X66629600Y-162230000D03*
%TD*%
D14*
%TO.C,JUMPER1*%
X103982600Y-127558800D03*
D13*
X106522600Y-127558800D03*
%TD*%
D14*
%TO.C,S_D1*%
X46786800Y-160020000D03*
D13*
X46786800Y-162560000D03*
X46786800Y-165100000D03*
%TD*%
D15*
%TO.C,-1*%
X84201000Y-136575800D03*
D16*
X84201000Y-136575800D03*
%TD*%
D10*
%TO.C,F8*%
X98348800Y-126060200D03*
X99948800Y-120960200D03*
%TD*%
D11*
%TO.C,REF\u002A\u002A*%
X42926000Y-126898400D03*
%TD*%
D14*
%TO.C,J6*%
X73304400Y-138430000D03*
D13*
X70764400Y-138430000D03*
X73304400Y-135890000D03*
X70764400Y-135890000D03*
%TD*%
D12*
%TO.C,U5*%
X84856200Y-163466200D03*
D13*
X101828200Y-141936200D03*
D14*
X101828200Y-144476200D03*
D13*
X99288200Y-141936200D03*
X99288200Y-144476200D03*
X96748200Y-141936200D03*
X96748200Y-144476200D03*
X94208200Y-141936200D03*
X94208200Y-144476200D03*
X89126200Y-141936200D03*
%TD*%
D14*
%TO.C,J8*%
X68884800Y-146583400D03*
D13*
X68884800Y-149123400D03*
X66344800Y-146583400D03*
X66344800Y-149123400D03*
%TD*%
D10*
%TO.C,F10*%
X40741600Y-154787600D03*
X45841600Y-156387600D03*
%TD*%
%TO.C,F7*%
X52984400Y-119938800D03*
X58084400Y-121538800D03*
%TD*%
%TO.C,F5*%
X105283000Y-137261600D03*
X106883000Y-132161600D03*
%TD*%
%TO.C,F2*%
X63144400Y-117094000D03*
X58044400Y-115494000D03*
%TD*%
%TO.C,F1*%
X47396400Y-121564400D03*
X42296400Y-119964400D03*
%TD*%
D14*
%TO.C,J7*%
X78079600Y-149758400D03*
D13*
X78079600Y-147218400D03*
X80619600Y-149758400D03*
X80619600Y-147218400D03*
%TD*%
D14*
%TO.C,F_B1*%
X94488000Y-116332000D03*
D13*
X94488000Y-113792000D03*
X94488000Y-111252000D03*
%TD*%
D12*
%TO.C,U4*%
X89247400Y-131247000D03*
D13*
X67717400Y-114275000D03*
D14*
X70257400Y-114275000D03*
D13*
X67717400Y-116815000D03*
X70257400Y-116815000D03*
X67717400Y-119355000D03*
X70257400Y-119355000D03*
X67717400Y-121895000D03*
X70257400Y-121895000D03*
X67717400Y-126977000D03*
%TD*%
D14*
%TO.C,S_C1*%
X127254000Y-160070800D03*
D13*
X127254000Y-162610800D03*
X127254000Y-165150800D03*
%TD*%
M02*
